<svg width="180" height="180" viewBox="0 0 180 180" fill="none" xmlns="http://www.w3.org/2000/svg">
<g clip-path="url(#clip0_844_59669)">
<rect width="180" height="180" rx="13.8462" fill="#262AFF"/>
<path d="M121.359 90.2294C112.982 101.906 107.199 117.195 105.696 133.905C116.417 131.098 126.478 123.553 134.437 112.459C142.814 100.783 148.597 85.4938 150.1 68.7837C139.379 71.5905 129.318 79.1354 121.359 90.2294Z" stroke="white" stroke-width="11.06"/>
<path fill-rule="evenodd" clip-rule="evenodd" d="M149.834 63.1513C151.35 62.7976 152.883 62.5254 154.431 62.3383C154.86 62.2865 155.289 62.2412 155.72 62.2026C155.748 62.2 155.777 62.1974 155.806 62.1949L160.938 62.4272L157.392 140.737L146.344 140.237L149.834 63.1513Z" fill="white"/>
<path d="M57.8198 88.8359C48.4962 77.4901 37.1202 70.1268 25.3598 67.9931C28.0599 85.7627 35.2865 101.724 45.059 113.616C54.3827 124.962 65.7589 132.325 77.5193 134.459C74.8188 116.689 67.5922 100.728 57.8198 88.8359Z" stroke="white" stroke-width="11.06"/>
<path d="M84.6868 140.51V39.2634" stroke="white" stroke-width="11.06" stroke-linejoin="round"/>
</g>
<defs>
<clipPath id="clip0_844_59669">
<rect width="180" height="180" fill="white"/>
</clipPath>
</defs>
</svg>
