<svg width="1920" height="586" viewBox="0 0 1920 586" fill="none" xmlns="http://www.w3.org/2000/svg">
<rect width="1920" height="585.875" fill="#B8B8B8"/>
<g filter="url(#filter0_d_545_103070)">
<g clip-path="url(#clip0_545_103070)">
<rect width="814" height="457.875" transform="translate(553 63.999)" fill="#EEEEEE"/>
<g clip-path="url(#clip1_545_103070)">
<rect width="200.108" height="457.875" transform="translate(1166.89 63.998)" fill="#474747"/>
<rect x="1174.15" y="71.2603" width="183.961" height="46.9483" rx="1.67472" stroke="white" stroke-opacity="0.25" stroke-width="0.958129"/>
<rect x="1174.15" y="126.832" width="183.961" height="46.9483" rx="1.67472" stroke="white" stroke-opacity="0.25" stroke-width="0.958129"/>
<rect x="1174.15" y="182.403" width="183.961" height="46.9483" rx="1.67472" stroke="white" stroke-opacity="0.25" stroke-width="0.958129"/>
<rect x="1174.15" y="237.975" width="183.961" height="46.9483" rx="1.67472" stroke="white" stroke-opacity="0.25" stroke-width="0.958129"/>
<rect x="1174.15" y="293.546" width="183.961" height="46.9483" rx="1.67472" stroke="white" stroke-opacity="0.25" stroke-width="0.958129"/>
<rect x="1174.15" y="349.118" width="183.961" height="46.9483" rx="1.67472" stroke="white" stroke-opacity="0.25" stroke-width="0.958129"/>
<rect x="1174.15" y="404.689" width="183.961" height="46.9483" rx="1.67472" stroke="white" stroke-opacity="0.25" stroke-width="0.958129"/>
<rect x="1174.15" y="460.26" width="183.961" height="46.9483" rx="1.67472" stroke="white" stroke-opacity="0.25" stroke-width="0.958129"/>
<rect x="1174.15" y="515.832" width="183.961" height="60.3621" rx="1.67472" stroke="white" stroke-opacity="0.25" stroke-width="0.958129"/>
</g>
<g filter="url(#filter1_d_545_103070)">
<rect x="553" y="63.998" width="78.0083" height="457.875" fill="white"/>
<path d="M553.194 128.486H624.568" stroke="#E5E7EC" stroke-width="0.387899" stroke-linecap="square"/>
<path d="M553.194 197.144H624.568" stroke="#E5E7EC" stroke-width="0.387899" stroke-linecap="square"/>
<rect x="557.894" y="137.626" width="6.34281" height="6.34281" rx="3.17141" fill="#D1D1D1"/>
<rect x="570.444" y="138.521" width="17.3823" height="4.55111" rx="2.27556" fill="#9C9C9C"/>
<path d="M550.652 85.54H612.716C616.143 85.54 618.922 88.3187 618.922 91.7464V97.9528C618.922 101.381 616.143 104.159 612.716 104.159H550.652V85.54Z" fill="#8A8A8A" fill-opacity="0.2"/>
<rect x="556.858" y="91.6787" width="6.34281" height="6.34281" rx="3.17141" fill="#484848"/>
<rect x="569.407" y="92.5742" width="17.3823" height="4.55111" rx="2.27556" fill="#534747"/>
<rect x="556.858" y="159.124" width="6.34281" height="6.34281" rx="3.17141" fill="#D1D1D1"/>
<rect x="569.408" y="160.02" width="17.3823" height="4.55111" rx="2.27556" fill="#9C9C9C"/>
<rect x="557.894" y="113.46" width="6.34281" height="6.34281" rx="3.17141" fill="#D1D1D1"/>
<rect x="570.444" y="114.355" width="17.3823" height="4.55111" rx="2.27556" fill="#9C9C9C"/>
<rect x="557.894" y="181.128" width="6.34281" height="6.34281" rx="3.17141" fill="#D1D1D1"/>
<rect x="570.444" y="182.023" width="17.3823" height="4.55111" rx="2.27556" fill="#9C9C9C"/>
<rect x="557.894" y="206.282" width="6.34281" height="6.34281" rx="3.17141" fill="#D1D1D1"/>
<rect x="570.444" y="207.178" width="17.3823" height="4.55111" rx="2.27556" fill="#9C9C9C"/>
<rect x="553" y="63.998" width="78.0083" height="457.875" stroke="#979797"/>
</g>
<rect x="644.085" y="77.165" width="78.0726" height="12.4103" rx="6.20515" fill="white"/>
<path d="M653.582 85.878L651.954 84.25" stroke="black" stroke-width="0.847917" stroke-linecap="round" stroke-linejoin="round"/>
<circle cx="650.326" cy="82.6228" r="2.17067" stroke="black" stroke-width="0.847917" stroke-linecap="round" stroke-linejoin="round"/>
<rect x="644.297" y="93.0401" width="77.576" height="34.6615" rx="3.17969" fill="white" fill-opacity="0.71"/>
<rect x="653.597" y="103.51" width="6.86057" height="6.86057" rx="3.43029" fill="#D1D1D1"/>
<rect x="653.597" y="113.515" width="11.7201" height="3.71614" rx="1.85807" fill="#909090"/>
<rect x="644.297" y="93.0401" width="77.576" height="34.6615" rx="3.17969" stroke="#E5E7EC" stroke-width="0.423958"/>
<rect x="644.297" y="131.379" width="77.576" height="34.6615" rx="3.17969" fill="white" fill-opacity="0.71"/>
<rect x="653.597" y="141.849" width="6.86057" height="6.86057" rx="3.43029" fill="#D1D1D1"/>
<rect x="653.597" y="151.854" width="11.7201" height="3.71614" rx="1.85807" fill="#909090"/>
<rect x="644.297" y="131.379" width="77.576" height="34.6615" rx="3.17969" stroke="#E5E7EC" stroke-width="0.423958"/>
<rect x="644.297" y="169.717" width="77.576" height="34.6615" rx="3.17969" fill="white" fill-opacity="0.71"/>
<rect x="653.597" y="180.187" width="6.86057" height="6.86057" rx="3.43029" fill="#D1D1D1"/>
<rect x="653.597" y="190.191" width="11.7201" height="3.71614" rx="1.85807" fill="#909090"/>
<rect x="644.297" y="169.717" width="77.576" height="34.6615" rx="3.17969" stroke="#E5E7EC" stroke-width="0.423958"/>
<g filter="url(#filter2_d_545_103070)">
<rect x="644.085" y="207.854" width="78.0726" height="35.0855" rx="3.39167" fill="white"/>
<rect x="658.499" y="213.489" width="10.175" height="10.175" rx="5.0875" fill="#D1D1D1"/>
<rect x="658.499" y="226.208" width="17.3823" height="4.55111" rx="2.27556" fill="#474747"/>
<rect x="658.499" y="233.303" width="20.6807" height="3.81563" rx="1.90781" fill="#9C9C9C"/>
<rect x="644.085" y="207.854" width="78.0726" height="35.0855" rx="3.39167" stroke="#979797" stroke-width="1.85809"/>
</g>
<rect x="644.297" y="246.395" width="77.576" height="34.6615" rx="3.17969" fill="white" fill-opacity="0.71"/>
<rect x="653.597" y="256.864" width="6.86057" height="6.86057" rx="3.43029" fill="#D1D1D1"/>
<rect x="653.597" y="266.869" width="11.7201" height="3.71614" rx="1.85807" fill="#909090"/>
<rect x="644.297" y="246.395" width="77.576" height="34.6615" rx="3.17969" stroke="#E5E7EC" stroke-width="0.423958"/>
<rect x="644.297" y="284.732" width="77.576" height="34.6615" rx="3.17969" fill="white" fill-opacity="0.71"/>
<rect x="653.597" y="295.202" width="6.86057" height="6.86057" rx="3.43029" fill="#D1D1D1"/>
<rect x="653.597" y="305.207" width="11.7201" height="3.71614" rx="1.85807" fill="#909090"/>
<rect x="644.297" y="284.732" width="77.576" height="34.6615" rx="3.17969" stroke="#E5E7EC" stroke-width="0.423958"/>
<rect x="644.297" y="323.071" width="77.576" height="34.6615" rx="3.17969" fill="white" fill-opacity="0.71"/>
<rect x="653.597" y="333.541" width="6.86057" height="6.86057" rx="3.43029" fill="#D1D1D1"/>
<rect x="653.597" y="343.546" width="11.7201" height="3.71614" rx="1.85807" fill="#909090"/>
<rect x="644.297" y="323.071" width="77.576" height="34.6615" rx="3.17969" stroke="#E5E7EC" stroke-width="0.423958"/>
<rect x="644.297" y="361.409" width="77.576" height="34.6615" rx="3.17969" fill="white" fill-opacity="0.71"/>
<rect x="653.597" y="371.879" width="6.86057" height="6.86057" rx="3.43029" fill="#D1D1D1"/>
<rect x="653.597" y="381.884" width="11.7201" height="3.71614" rx="1.85807" fill="#909090"/>
<rect x="644.297" y="361.409" width="77.576" height="34.6615" rx="3.17969" stroke="#E5E7EC" stroke-width="0.423958"/>
<rect x="644.297" y="399.748" width="77.576" height="34.6615" rx="3.17969" fill="white" fill-opacity="0.71"/>
<rect x="653.597" y="410.218" width="6.86057" height="6.86057" rx="3.43029" fill="#D1D1D1"/>
<rect x="653.597" y="420.223" width="11.7201" height="3.71614" rx="1.85807" fill="#909090"/>
<rect x="644.297" y="399.748" width="77.576" height="34.6615" rx="3.17969" stroke="#E5E7EC" stroke-width="0.423958"/>
<rect x="644.297" y="438.086" width="77.576" height="34.6615" rx="3.17969" fill="white" fill-opacity="0.71"/>
<rect x="653.597" y="448.556" width="6.86057" height="6.86057" rx="3.43029" fill="#D1D1D1"/>
<rect x="653.597" y="458.561" width="11.7201" height="3.71614" rx="1.85807" fill="#909090"/>
<rect x="644.297" y="438.086" width="77.576" height="34.6615" rx="3.17969" stroke="#E5E7EC" stroke-width="0.423958"/>
<rect x="644.297" y="476.425" width="77.576" height="34.6615" rx="3.17969" fill="white" fill-opacity="0.71"/>
<rect x="653.597" y="486.895" width="6.86057" height="6.86057" rx="3.43029" fill="#D1D1D1"/>
<rect x="653.597" y="496.899" width="11.7201" height="3.71614" rx="1.85807" fill="#909090"/>
<rect x="644.297" y="476.425" width="77.576" height="34.6615" rx="3.17969" stroke="#E5E7EC" stroke-width="0.423958"/>
<rect x="730.29" y="77.165" width="422.545" height="434.133" rx="2.54375" fill="white" fill-opacity="0.86"/>
<path d="M737.073 114.258H1146.05" stroke="#F0F4FA" stroke-width="0.423958" stroke-linecap="square"/>
<rect x="770.989" y="95.6035" width="31.7969" height="4.23958" rx="2.11979" fill="#474747"/>
<rect x="770.989" y="103.235" width="20.774" height="3.39167" rx="1.69583" fill="#9C9C9C"/>
<rect x="744.067" y="92.6339" width="16.5344" height="16.5344" rx="0.211979" fill="white" stroke="#838383" stroke-width="0.423958"/>
<rect x="859.597" y="95.6104" width="31.7969" height="4.23958" rx="2.11979" fill="#474747"/>
<rect x="859.597" y="103.242" width="20.774" height="3.39167" rx="1.69583" fill="#9C9C9C"/>
<path opacity="0.41" d="M1087.63 100.903C1087.63 102.806 1089.18 104.348 1091.08 104.348C1092.98 104.348 1094.52 102.806 1094.52 100.903H1095.05C1095.05 103.098 1093.27 104.878 1091.08 104.878C1088.88 104.878 1087.1 103.098 1087.1 100.903H1087.63Z" fill="#747382"/>
<path fill-rule="evenodd" clip-rule="evenodd" d="M1091.08 101.635L1092.58 99.8971H1091.34V97.2154H1090.81V99.8971H1089.57L1091.08 101.635Z" fill="#747382"/>
<path opacity="0.406545" d="M1107.98 100.903C1107.98 102.806 1109.53 104.348 1111.43 104.348C1113.33 104.348 1114.87 102.806 1114.87 100.903H1115.4C1115.4 103.098 1113.62 104.878 1111.43 104.878C1109.23 104.878 1107.45 103.098 1107.45 100.903H1107.98Z" fill="#747382"/>
<path d="M1111.18 97.9883V101.963H1111.71V97.9883H1111.18Z" fill="#747382"/>
<path d="M1109.94 99.2601L1111.45 97.5225L1112.95 99.2601H1109.94Z" fill="#747382"/>
<mask id="mask0_545_103070" style="mask-type:luminance" maskUnits="userSpaceOnUse" x="1127" y="96" width="10" height="10">
<rect x="1127.54" y="96.6641" width="8.47917" height="8.47917" fill="white"/>
</mask>
<g mask="url(#mask0_545_103070)">
<circle cx="1128.39" cy="100.904" r="0.847917" fill="#747382"/>
<circle cx="1135.17" cy="100.904" r="0.847917" fill="#747382"/>
<circle cx="1131.78" cy="100.904" r="0.847917" fill="#747382"/>
</g>
<path d="M737.074 148.184H1146.05" stroke="#F0F4FA" stroke-width="0.423958" stroke-linecap="square"/>
<rect x="770.99" y="129.528" width="31.7969" height="4.23958" rx="2.11979" fill="#474747"/>
<rect x="770.99" y="137.16" width="20.774" height="3.39167" rx="1.69583" fill="#9C9C9C"/>
<rect x="744.068" y="126.559" width="16.5344" height="16.5344" rx="0.211979" fill="white" stroke="#838383" stroke-width="0.423958"/>
<rect x="859.598" y="129.526" width="31.7969" height="4.23958" rx="2.11979" fill="#474747"/>
<rect x="859.598" y="137.158" width="20.774" height="3.39167" rx="1.69583" fill="#9C9C9C"/>
<path opacity="0.41" d="M1087.64 134.825C1087.64 136.728 1089.18 138.27 1091.08 138.27C1092.98 138.27 1094.52 136.728 1094.52 134.825H1095.05C1095.05 137.02 1093.28 138.8 1091.08 138.8C1088.89 138.8 1087.11 137.02 1087.11 134.825H1087.64Z" fill="#747382"/>
<path fill-rule="evenodd" clip-rule="evenodd" d="M1091.08 135.557L1092.59 133.819H1091.35V131.137H1090.82V133.819H1089.58L1091.08 135.557Z" fill="#747382"/>
<path opacity="0.406545" d="M1107.99 134.825C1107.99 136.728 1109.53 138.27 1111.43 138.27C1113.33 138.27 1114.87 136.728 1114.87 134.825H1115.4C1115.4 137.02 1113.63 138.8 1111.43 138.8C1109.24 138.8 1107.46 137.02 1107.46 134.825H1107.99Z" fill="#747382"/>
<path d="M1111.19 131.91V135.885H1111.72V131.91H1111.19Z" fill="#747382"/>
<path d="M1109.95 133.182L1111.45 131.444L1112.96 133.182H1109.95Z" fill="#747382"/>
<mask id="mask1_545_103070" style="mask-type:luminance" maskUnits="userSpaceOnUse" x="1127" y="130" width="10" height="10">
<rect x="1127.54" y="130.586" width="8.47917" height="8.47917" fill="white"/>
</mask>
<g mask="url(#mask1_545_103070)">
<circle cx="1128.39" cy="134.825" r="0.847917" fill="#747382"/>
<circle cx="1135.17" cy="134.825" r="0.847917" fill="#747382"/>
<circle cx="1131.78" cy="134.825" r="0.847917" fill="#747382"/>
</g>
<path d="M737.073 182.098H1146.05" stroke="#F0F4FA" stroke-width="0.423958" stroke-linecap="square"/>
<rect x="770.989" y="163.442" width="31.7969" height="4.23958" rx="2.11979" fill="#474747"/>
<rect x="770.989" y="171.074" width="20.774" height="3.39167" rx="1.69583" fill="#9C9C9C"/>
<rect x="744.067" y="160.473" width="16.5344" height="16.5344" rx="0.211979" fill="white" stroke="#838383" stroke-width="0.423958"/>
<rect x="859.597" y="163.442" width="31.7969" height="4.23958" rx="2.11979" fill="#474747"/>
<rect x="859.597" y="171.074" width="20.774" height="3.39167" rx="1.69583" fill="#9C9C9C"/>
<path opacity="0.41" d="M1087.63 168.742C1087.63 170.645 1089.18 172.187 1091.08 172.187C1092.98 172.187 1094.52 170.645 1094.52 168.742H1095.05C1095.05 170.937 1093.27 172.717 1091.08 172.717C1088.88 172.717 1087.1 170.937 1087.1 168.742H1087.63Z" fill="#747382"/>
<path fill-rule="evenodd" clip-rule="evenodd" d="M1091.08 169.474L1092.58 167.736H1091.34V165.054H1090.81V167.736H1089.57L1091.08 169.474Z" fill="#747382"/>
<path opacity="0.406545" d="M1107.98 168.742C1107.98 170.645 1109.53 172.187 1111.43 172.187C1113.33 172.187 1114.87 170.645 1114.87 168.742H1115.4C1115.4 170.937 1113.62 172.717 1111.43 172.717C1109.23 172.717 1107.45 170.937 1107.45 168.742H1107.98Z" fill="#747382"/>
<path d="M1111.18 165.827V169.802H1111.71V165.827H1111.18Z" fill="#747382"/>
<path d="M1109.94 167.099L1111.45 165.361L1112.95 167.099H1109.94Z" fill="#747382"/>
<mask id="mask2_545_103070" style="mask-type:luminance" maskUnits="userSpaceOnUse" x="1127" y="164" width="10" height="9">
<rect x="1127.54" y="164.503" width="8.47917" height="8.47917" fill="white"/>
</mask>
<g mask="url(#mask2_545_103070)">
<circle cx="1128.39" cy="168.742" r="0.847917" fill="#747382"/>
<circle cx="1135.17" cy="168.742" r="0.847917" fill="#747382"/>
<circle cx="1131.78" cy="168.742" r="0.847917" fill="#747382"/>
</g>
<path d="M737.074 216.01H1146.05" stroke="#F0F4FA" stroke-width="0.423958" stroke-linecap="square"/>
<rect x="770.99" y="197.359" width="31.7969" height="4.23958" rx="2.11979" fill="#474747"/>
<rect x="770.99" y="204.991" width="20.774" height="3.39167" rx="1.69583" fill="#9C9C9C"/>
<rect x="744.068" y="194.392" width="16.5344" height="16.5344" rx="0.211979" fill="white" stroke="#838383" stroke-width="0.423958"/>
<rect x="859.598" y="197.354" width="31.7969" height="4.23958" rx="2.11979" fill="#474747"/>
<rect x="859.598" y="204.985" width="20.774" height="3.39167" rx="1.69583" fill="#9C9C9C"/>
<path opacity="0.41" d="M1087.64 202.659C1087.64 204.562 1089.18 206.104 1091.08 206.104C1092.98 206.104 1094.52 204.562 1094.52 202.659H1095.05C1095.05 204.854 1093.28 206.634 1091.08 206.634C1088.89 206.634 1087.11 204.854 1087.11 202.659H1087.64Z" fill="#747382"/>
<path fill-rule="evenodd" clip-rule="evenodd" d="M1091.08 203.391L1092.59 201.653H1091.35V198.971H1090.82V201.653H1089.58L1091.08 203.391Z" fill="#747382"/>
<path opacity="0.406545" d="M1107.99 202.659C1107.99 204.562 1109.53 206.104 1111.43 206.104C1113.33 206.104 1114.87 204.562 1114.87 202.659H1115.4C1115.4 204.854 1113.63 206.634 1111.43 206.634C1109.24 206.634 1107.46 204.854 1107.46 202.659H1107.99Z" fill="#747382"/>
<path d="M1111.19 199.744V203.719H1111.72V199.744H1111.19Z" fill="#747382"/>
<path d="M1109.95 201.016L1111.45 199.278L1112.96 201.016H1109.95Z" fill="#747382"/>
<mask id="mask3_545_103070" style="mask-type:luminance" maskUnits="userSpaceOnUse" x="1127" y="198" width="10" height="9">
<rect x="1127.54" y="198.42" width="8.47917" height="8.47917" fill="white"/>
</mask>
<g mask="url(#mask3_545_103070)">
<circle cx="1128.39" cy="202.659" r="0.847917" fill="#747382"/>
<circle cx="1135.17" cy="202.659" r="0.847917" fill="#747382"/>
<circle cx="1131.78" cy="202.659" r="0.847917" fill="#747382"/>
</g>
<path d="M737.073 249.928H1146.05" stroke="#F0F4FA" stroke-width="0.423958" stroke-linecap="square"/>
<rect x="770.989" y="231.27" width="31.7969" height="4.23958" rx="2.11979" fill="#474747"/>
<rect x="770.989" y="238.901" width="20.774" height="3.39167" rx="1.69583" fill="#9C9C9C"/>
<rect x="744.067" y="228.3" width="16.5344" height="16.5344" rx="0.211979" fill="white" stroke="#838383" stroke-width="0.423958"/>
<rect x="859.597" y="231.276" width="31.7969" height="4.23958" rx="2.11979" fill="#474747"/>
<rect x="859.597" y="238.908" width="20.774" height="3.39167" rx="1.69583" fill="#9C9C9C"/>
<path opacity="0.41" d="M1087.63 236.575C1087.63 238.478 1089.18 240.02 1091.08 240.02C1092.98 240.02 1094.52 238.478 1094.52 236.575H1095.05C1095.05 238.77 1093.27 240.55 1091.08 240.55C1088.88 240.55 1087.1 238.77 1087.1 236.575H1087.63Z" fill="#747382"/>
<path fill-rule="evenodd" clip-rule="evenodd" d="M1091.08 237.307L1092.58 235.569H1091.34V232.887H1090.81V235.569H1089.57L1091.08 237.307Z" fill="#747382"/>
<path opacity="0.406545" d="M1107.98 236.575C1107.98 238.478 1109.53 240.02 1111.43 240.02C1113.33 240.02 1114.87 238.478 1114.87 236.575H1115.4C1115.4 238.77 1113.62 240.55 1111.43 240.55C1109.23 240.55 1107.45 238.77 1107.45 236.575H1107.98Z" fill="#747382"/>
<path d="M1111.18 233.66V237.635H1111.71V233.66H1111.18Z" fill="#747382"/>
<path d="M1109.94 234.932L1111.45 233.194L1112.95 234.932H1109.94Z" fill="#747382"/>
<mask id="mask4_545_103070" style="mask-type:luminance" maskUnits="userSpaceOnUse" x="1127" y="232" width="10" height="9">
<rect x="1127.54" y="232.336" width="8.47917" height="8.47917" fill="white"/>
</mask>
<g mask="url(#mask4_545_103070)">
<circle cx="1128.39" cy="236.575" r="0.847917" fill="#747382"/>
<circle cx="1135.17" cy="236.575" r="0.847917" fill="#747382"/>
<circle cx="1131.78" cy="236.575" r="0.847917" fill="#747382"/>
</g>
<path d="M737.073 283.842H1146.05" stroke="#F0F4FA" stroke-width="0.423958" stroke-linecap="square"/>
<rect x="770.989" y="265.185" width="31.7969" height="4.23958" rx="2.11979" fill="#474747"/>
<rect x="770.989" y="272.816" width="20.774" height="3.39167" rx="1.69583" fill="#9C9C9C"/>
<rect x="744.067" y="262.217" width="16.5344" height="16.5344" rx="0.211979" fill="white" stroke="#838383" stroke-width="0.423958"/>
<rect x="859.597" y="265.192" width="31.7969" height="4.23958" rx="2.11979" fill="#474747"/>
<rect x="859.597" y="272.824" width="20.774" height="3.39167" rx="1.69583" fill="#9C9C9C"/>
<path opacity="0.41" d="M1087.63 270.489C1087.63 272.392 1089.18 273.934 1091.08 273.934C1092.98 273.934 1094.52 272.392 1094.52 270.489H1095.05C1095.05 272.684 1093.27 274.464 1091.08 274.464C1088.88 274.464 1087.1 272.684 1087.1 270.489H1087.63Z" fill="#747382"/>
<path fill-rule="evenodd" clip-rule="evenodd" d="M1091.08 271.221L1092.58 269.483H1091.34V266.801H1090.81V269.483H1089.57L1091.08 271.221Z" fill="#747382"/>
<path opacity="0.406545" d="M1107.98 270.489C1107.98 272.392 1109.53 273.934 1111.43 273.934C1113.33 273.934 1114.87 272.392 1114.87 270.489H1115.4C1115.4 272.684 1113.62 274.464 1111.43 274.464C1109.23 274.464 1107.45 272.684 1107.45 270.489H1107.98Z" fill="#747382"/>
<path d="M1111.18 267.574V271.549H1111.71V267.574H1111.18Z" fill="#747382"/>
<path d="M1109.94 268.846L1111.45 267.108L1112.95 268.846H1109.94Z" fill="#747382"/>
<mask id="mask5_545_103070" style="mask-type:luminance" maskUnits="userSpaceOnUse" x="1127" y="266" width="10" height="9">
<rect x="1127.54" y="266.25" width="8.47917" height="8.47917" fill="white"/>
</mask>
<g mask="url(#mask5_545_103070)">
<circle cx="1128.39" cy="270.49" r="0.847917" fill="#747382"/>
<circle cx="1135.17" cy="270.49" r="0.847917" fill="#747382"/>
<circle cx="1131.78" cy="270.49" r="0.847917" fill="#747382"/>
</g>
<path d="M737.073 317.762H1146.05" stroke="#F0F4FA" stroke-width="0.423958" stroke-linecap="square"/>
<rect x="770.989" y="299.114" width="31.7969" height="4.23958" rx="2.11979" fill="#474747"/>
<rect x="770.989" y="306.746" width="20.774" height="3.39167" rx="1.69583" fill="#9C9C9C"/>
<rect x="744.067" y="296.145" width="16.5344" height="16.5344" rx="0.211979" fill="white" stroke="#838383" stroke-width="0.423958"/>
<rect x="859.597" y="299.106" width="31.7969" height="4.23958" rx="2.11979" fill="#474747"/>
<rect x="859.597" y="306.737" width="20.774" height="3.39167" rx="1.69583" fill="#9C9C9C"/>
<path opacity="0.41" d="M1087.63 304.405C1087.63 306.308 1089.18 307.85 1091.08 307.85C1092.98 307.85 1094.52 306.308 1094.52 304.405H1095.05C1095.05 306.6 1093.27 308.38 1091.08 308.38C1088.88 308.38 1087.1 306.6 1087.1 304.405H1087.63Z" fill="#747382"/>
<path fill-rule="evenodd" clip-rule="evenodd" d="M1091.08 305.137L1092.58 303.399H1091.34V300.717H1090.81V303.399H1089.57L1091.08 305.137Z" fill="#747382"/>
<path opacity="0.406545" d="M1107.98 304.405C1107.98 306.308 1109.53 307.85 1111.43 307.85C1113.33 307.85 1114.87 306.308 1114.87 304.405H1115.4C1115.4 306.6 1113.62 308.38 1111.43 308.38C1109.23 308.38 1107.45 306.6 1107.45 304.405H1107.98Z" fill="#747382"/>
<path d="M1111.18 301.49V305.465H1111.71V301.49H1111.18Z" fill="#747382"/>
<path d="M1109.94 302.762L1111.45 301.024L1112.95 302.762H1109.94Z" fill="#747382"/>
<mask id="mask6_545_103070" style="mask-type:luminance" maskUnits="userSpaceOnUse" x="1127" y="300" width="10" height="9">
<rect x="1127.54" y="300.166" width="8.47917" height="8.47917" fill="white"/>
</mask>
<g mask="url(#mask6_545_103070)">
<circle cx="1128.39" cy="304.406" r="0.847917" fill="#747382"/>
<circle cx="1135.17" cy="304.406" r="0.847917" fill="#747382"/>
<circle cx="1131.78" cy="304.406" r="0.847917" fill="#747382"/>
</g>
<path d="M737.073 351.68H1146.05" stroke="#F0F4FA" stroke-width="0.423958" stroke-linecap="square"/>
<rect x="770.989" y="333.023" width="31.7969" height="4.23958" rx="2.11979" fill="#474747"/>
<rect x="770.989" y="340.655" width="20.774" height="3.39167" rx="1.69583" fill="#9C9C9C"/>
<rect x="744.067" y="330.054" width="16.5344" height="16.5344" rx="0.211979" fill="white" stroke="#838383" stroke-width="0.423958"/>
<rect x="859.597" y="333.026" width="31.7969" height="4.23958" rx="2.11979" fill="#474747"/>
<rect x="859.597" y="340.658" width="20.774" height="3.39167" rx="1.69583" fill="#9C9C9C"/>
<path opacity="0.41" d="M1087.63 338.325C1087.63 340.228 1089.18 341.77 1091.08 341.77C1092.98 341.77 1094.52 340.228 1094.52 338.325H1095.05C1095.05 340.52 1093.27 342.3 1091.08 342.3C1088.88 342.3 1087.1 340.52 1087.1 338.325H1087.63Z" fill="#747382"/>
<path fill-rule="evenodd" clip-rule="evenodd" d="M1091.08 339.057L1092.58 337.319H1091.34V334.637H1090.81V337.319H1089.57L1091.08 339.057Z" fill="#747382"/>
<path opacity="0.406545" d="M1107.98 338.325C1107.98 340.228 1109.53 341.77 1111.43 341.77C1113.33 341.77 1114.87 340.228 1114.87 338.325H1115.4C1115.4 340.52 1113.62 342.3 1111.43 342.3C1109.23 342.3 1107.45 340.52 1107.45 338.325H1107.98Z" fill="#747382"/>
<path d="M1111.18 335.41V339.385H1111.71V335.41H1111.18Z" fill="#747382"/>
<path d="M1109.94 336.682L1111.45 334.944L1112.95 336.682H1109.94Z" fill="#747382"/>
<mask id="mask7_545_103070" style="mask-type:luminance" maskUnits="userSpaceOnUse" x="1127" y="334" width="10" height="9">
<rect x="1127.54" y="334.086" width="8.47917" height="8.47917" fill="white"/>
</mask>
<g mask="url(#mask7_545_103070)">
<circle cx="1128.39" cy="338.325" r="0.847917" fill="#747382"/>
<circle cx="1135.17" cy="338.325" r="0.847917" fill="#747382"/>
<circle cx="1131.78" cy="338.325" r="0.847917" fill="#747382"/>
</g>
<path d="M737.074 385.593H1146.05" stroke="#F0F4FA" stroke-width="0.423958" stroke-linecap="square"/>
<rect x="770.99" y="366.938" width="31.7969" height="4.23958" rx="2.11979" fill="#474747"/>
<rect x="770.99" y="374.569" width="20.774" height="3.39167" rx="1.69583" fill="#9C9C9C"/>
<rect x="744.068" y="363.97" width="16.5344" height="16.5344" rx="0.211979" fill="white" stroke="#838383" stroke-width="0.423958"/>
<rect x="859.598" y="366.941" width="31.7969" height="4.23958" rx="2.11979" fill="#474747"/>
<rect x="859.598" y="374.573" width="20.774" height="3.39167" rx="1.69583" fill="#9C9C9C"/>
<path opacity="0.41" d="M1087.64 372.24C1087.64 374.143 1089.18 375.685 1091.08 375.685C1092.98 375.685 1094.53 374.143 1094.53 372.24H1095.05C1095.05 374.435 1093.28 376.215 1091.08 376.215C1088.89 376.215 1087.11 374.435 1087.11 372.24H1087.64Z" fill="#747382"/>
<path fill-rule="evenodd" clip-rule="evenodd" d="M1091.08 372.972L1092.59 371.234H1091.35V368.552H1090.82V371.234H1089.58L1091.08 372.972Z" fill="#747382"/>
<path opacity="0.406545" d="M1107.99 372.24C1107.99 374.143 1109.53 375.685 1111.43 375.685C1113.33 375.685 1114.88 374.143 1114.88 372.24H1115.4C1115.4 374.435 1113.63 376.215 1111.43 376.215C1109.24 376.215 1107.46 374.435 1107.46 372.24H1107.99Z" fill="#747382"/>
<path d="M1111.19 369.325V373.3H1111.72V369.325H1111.19Z" fill="#747382"/>
<path d="M1109.95 370.597L1111.45 368.859L1112.96 370.597H1109.95Z" fill="#747382"/>
<mask id="mask8_545_103070" style="mask-type:luminance" maskUnits="userSpaceOnUse" x="1127" y="368" width="10" height="9">
<rect x="1127.54" y="368.001" width="8.47917" height="8.47917" fill="white"/>
</mask>
<g mask="url(#mask8_545_103070)">
<circle cx="1128.39" cy="372.241" r="0.847917" fill="#747382"/>
<circle cx="1135.17" cy="372.241" r="0.847917" fill="#747382"/>
<circle cx="1131.78" cy="372.241" r="0.847917" fill="#747382"/>
</g>
<path d="M737.073 419.506H1146.05" stroke="#F0F4FA" stroke-width="0.423958" stroke-linecap="square"/>
<rect x="770.989" y="400.856" width="31.7969" height="4.23958" rx="2.11979" fill="#474747"/>
<rect x="770.989" y="408.488" width="20.774" height="3.39167" rx="1.69583" fill="#9C9C9C"/>
<rect x="744.067" y="397.887" width="16.5344" height="16.5344" rx="0.211979" fill="white" stroke="#838383" stroke-width="0.423958"/>
<rect x="859.597" y="400.852" width="31.7969" height="4.23958" rx="2.11979" fill="#474747"/>
<rect x="859.597" y="408.483" width="20.774" height="3.39167" rx="1.69583" fill="#9C9C9C"/>
<path opacity="0.41" d="M1087.63 406.154C1087.63 408.057 1089.18 409.599 1091.08 409.599C1092.98 409.599 1094.52 408.057 1094.52 406.154H1095.05C1095.05 408.349 1093.27 410.129 1091.08 410.129C1088.88 410.129 1087.1 408.349 1087.1 406.154H1087.63Z" fill="#747382"/>
<path fill-rule="evenodd" clip-rule="evenodd" d="M1091.08 406.886L1092.58 405.148H1091.34V402.466H1090.81V405.148H1089.57L1091.08 406.886Z" fill="#747382"/>
<path opacity="0.406545" d="M1107.98 406.154C1107.98 408.057 1109.53 409.599 1111.43 409.599C1113.33 409.599 1114.87 408.057 1114.87 406.154H1115.4C1115.4 408.349 1113.62 410.129 1111.43 410.129C1109.23 410.129 1107.45 408.349 1107.45 406.154H1107.98Z" fill="#747382"/>
<path d="M1111.18 403.239V407.214H1111.71V403.239H1111.18Z" fill="#747382"/>
<path d="M1109.94 404.511L1111.45 402.773L1112.95 404.511H1109.94Z" fill="#747382"/>
<mask id="mask9_545_103070" style="mask-type:luminance" maskUnits="userSpaceOnUse" x="1127" y="401" width="10" height="10">
<rect x="1127.54" y="401.915" width="8.47917" height="8.47917" fill="white"/>
</mask>
<g mask="url(#mask9_545_103070)">
<circle cx="1128.39" cy="406.155" r="0.847917" fill="#747382"/>
<circle cx="1135.17" cy="406.155" r="0.847917" fill="#747382"/>
<circle cx="1131.78" cy="406.155" r="0.847917" fill="#747382"/>
</g>
<path d="M737.073 453.428H1146.05" stroke="#F0F4FA" stroke-width="0.423958" stroke-linecap="square"/>
<rect x="770.989" y="434.771" width="31.7969" height="4.23958" rx="2.11979" fill="#474747"/>
<rect x="770.989" y="442.403" width="20.774" height="3.39167" rx="1.69583" fill="#9C9C9C"/>
<rect x="744.068" y="431.802" width="16.5344" height="16.5344" rx="0.211979" fill="white" stroke="#838383" stroke-width="0.423958"/>
<rect x="859.597" y="434.774" width="31.7969" height="4.23958" rx="2.11979" fill="#474747"/>
<rect x="859.597" y="442.406" width="20.774" height="3.39167" rx="1.69583" fill="#9C9C9C"/>
<path opacity="0.41" d="M1087.63 440.072C1087.63 441.975 1089.18 443.517 1091.08 443.517C1092.98 443.517 1094.52 441.975 1094.52 440.072H1095.05C1095.05 442.267 1093.27 444.047 1091.08 444.047C1088.88 444.047 1087.1 442.267 1087.1 440.072H1087.63Z" fill="#747382"/>
<path fill-rule="evenodd" clip-rule="evenodd" d="M1091.08 440.804L1092.58 439.066H1091.34V436.384H1090.81V439.066H1089.57L1091.08 440.804Z" fill="#747382"/>
<path opacity="0.406545" d="M1107.98 440.072C1107.98 441.975 1109.53 443.517 1111.43 443.517C1113.33 443.517 1114.87 441.975 1114.87 440.072H1115.4C1115.4 442.267 1113.62 444.047 1111.43 444.047C1109.23 444.047 1107.45 442.267 1107.45 440.072H1107.98Z" fill="#747382"/>
<path d="M1111.18 437.157V441.132H1111.71V437.157H1111.18Z" fill="#747382"/>
<path d="M1109.94 438.429L1111.45 436.691L1112.95 438.429H1109.94Z" fill="#747382"/>
<mask id="mask10_545_103070" style="mask-type:luminance" maskUnits="userSpaceOnUse" x="1127" y="435" width="10" height="10">
<rect x="1127.54" y="435.833" width="8.47917" height="8.47917" fill="white"/>
</mask>
<g mask="url(#mask10_545_103070)">
<circle cx="1128.39" cy="440.073" r="0.847917" fill="#747382"/>
<circle cx="1135.17" cy="440.073" r="0.847917" fill="#747382"/>
<circle cx="1131.78" cy="440.073" r="0.847917" fill="#747382"/>
</g>
</g>
</g>
<defs>
<filter id="filter0_d_545_103070" x="540.544" y="55.3759" width="838.911" height="482.787" filterUnits="userSpaceOnUse" color-interpolation-filters="sRGB">
<feFlood flood-opacity="0" result="BackgroundImageFix"/>
<feColorMatrix in="SourceAlpha" type="matrix" values="0 0 0 0 0 0 0 0 0 0 0 0 0 0 0 0 0 0 127 0" result="hardAlpha"/>
<feOffset dy="3.83251"/>
<feGaussianBlur stdDeviation="6.22784"/>
<feComposite in2="hardAlpha" operator="out"/>
<feColorMatrix type="matrix" values="0 0 0 0 0 0 0 0 0 0 0 0 0 0 0 0 0 0 0.16 0"/>
<feBlend mode="normal" in2="BackgroundImageFix" result="effect1_dropShadow_545_103070"/>
<feBlend mode="normal" in="SourceGraphic" in2="effect1_dropShadow_545_103070" result="shape"/>
</filter>
<filter id="filter1_d_545_103070" x="546.412" y="61.0303" width="87.9878" height="465.506" filterUnits="userSpaceOnUse" color-interpolation-filters="sRGB">
<feFlood flood-opacity="0" result="BackgroundImageFix"/>
<feColorMatrix in="SourceAlpha" type="matrix" values="0 0 0 0 0 0 0 0 0 0 0 0 0 0 0 0 0 0 127 0" result="hardAlpha"/>
<feOffset dx="-0.423958" dy="0.847917"/>
<feGaussianBlur stdDeviation="1.90781"/>
<feColorMatrix type="matrix" values="0 0 0 0 0 0 0 0 0 0 0 0 0 0 0 0 0 0 0.161686 0"/>
<feBlend mode="normal" in2="BackgroundImageFix" result="effect1_dropShadow_545_103070"/>
<feBlend mode="normal" in="SourceGraphic" in2="effect1_dropShadow_545_103070" result="shape"/>
</filter>
<filter id="filter2_d_545_103070" x="622.806" y="195.054" width="120.631" height="77.6434" filterUnits="userSpaceOnUse" color-interpolation-filters="sRGB">
<feFlood flood-opacity="0" result="BackgroundImageFix"/>
<feColorMatrix in="SourceAlpha" type="matrix" values="0 0 0 0 0 0 0 0 0 0 0 0 0 0 0 0 0 0 127 0" result="hardAlpha"/>
<feOffset dy="8.47917"/>
<feGaussianBlur stdDeviation="10.175"/>
<feColorMatrix type="matrix" values="0 0 0 0 0 0 0 0 0 0 0 0 0 0 0 0 0 0 0.1471 0"/>
<feBlend mode="normal" in2="BackgroundImageFix" result="effect1_dropShadow_545_103070"/>
<feBlend mode="normal" in="SourceGraphic" in2="effect1_dropShadow_545_103070" result="shape"/>
</filter>
<clipPath id="clip0_545_103070">
<rect width="814" height="457.875" fill="white" transform="translate(553 63.999)"/>
</clipPath>
<clipPath id="clip1_545_103070">
<rect width="200.108" height="457.875" fill="white" transform="translate(1166.89 63.998)"/>
</clipPath>
</defs>
</svg>
