<svg width="1920" height="586" viewBox="0 0 1920 586" fill="none" xmlns="http://www.w3.org/2000/svg">
<rect width="1920" height="585.875" fill="#B8B8B8"/>
<g filter="url(#filter0_d_545_103324)">
<g clip-path="url(#clip0_545_103324)">
<rect width="814" height="457.875" transform="translate(553 63.9961)" fill="#EEEEEE"/>
<g clip-path="url(#clip1_545_103324)">
<rect width="200.108" height="457.875" transform="translate(1166.89 63.9971)" fill="#474747"/>
<rect x="1174.15" y="71.259" width="183.834" height="46.9161" rx="1.67357" stroke="white" stroke-opacity="0.25" stroke-width="0.957471"/>
<rect x="1174.15" y="126.792" width="183.834" height="46.9161" rx="1.67357" stroke="white" stroke-opacity="0.25" stroke-width="0.957471"/>
<rect x="1174.15" y="182.325" width="183.834" height="46.9161" rx="1.67357" stroke="white" stroke-opacity="0.25" stroke-width="0.957471"/>
<rect x="1174.15" y="237.859" width="183.834" height="46.9161" rx="1.67357" stroke="white" stroke-opacity="0.25" stroke-width="0.957471"/>
<rect x="1174.15" y="293.392" width="183.834" height="46.9161" rx="1.67357" stroke="white" stroke-opacity="0.25" stroke-width="0.957471"/>
<rect x="1174.15" y="348.926" width="183.834" height="46.9161" rx="1.67357" stroke="white" stroke-opacity="0.25" stroke-width="0.957471"/>
<rect x="1174.15" y="404.459" width="183.834" height="46.9161" rx="1.67357" stroke="white" stroke-opacity="0.25" stroke-width="0.957471"/>
<rect x="1174.15" y="459.992" width="183.834" height="46.9161" rx="1.67357" stroke="white" stroke-opacity="0.25" stroke-width="0.957471"/>
<rect x="1174.15" y="515.526" width="183.834" height="60.3207" rx="1.67357" stroke="white" stroke-opacity="0.25" stroke-width="0.957471"/>
</g>
<g filter="url(#filter1_d_545_103324)">
<rect x="553" y="63.9971" width="78.0083" height="457.875" fill="white"/>
<path d="M553.426 128.777H624.75" stroke="#E5E7EC" stroke-width="0.387633" stroke-linecap="square"/>
<path d="M553.426 197.387H624.75" stroke="#E5E7EC" stroke-width="0.387633" stroke-linecap="square"/>
<rect x="564.637" y="139.687" width="6.33846" height="6.33846" rx="3.16923" fill="#D1D1D1"/>
<rect x="577.177" y="140.582" width="17.3704" height="4.54799" rx="2.27399" fill="#9C9C9C"/>
<path d="M557.399 87.6367H619.421C622.846 87.6367 625.623 90.4135 625.623 93.8388V100.041C625.623 103.466 622.846 106.243 619.421 106.243H557.399V87.6367Z" fill="#8A8A8A" fill-opacity="0.2"/>
<rect x="563.602" y="93.7705" width="6.33846" height="6.33846" rx="3.16923" fill="#484848"/>
<rect x="576.142" y="94.666" width="17.3704" height="4.54799" rx="2.27399" fill="#534747"/>
<rect x="563.311" y="161.169" width="6.33846" height="6.33846" rx="3.16923" fill="#D1D1D1"/>
<rect x="575.851" y="162.064" width="17.3704" height="4.54799" rx="2.27399" fill="#9C9C9C"/>
<rect x="564.637" y="115.535" width="6.33846" height="6.33846" rx="3.16923" fill="#D1D1D1"/>
<rect x="577.177" y="116.431" width="17.3704" height="4.54799" rx="2.27399" fill="#9C9C9C"/>
<rect x="564.637" y="183.158" width="6.33846" height="6.33846" rx="3.16923" fill="#D1D1D1"/>
<rect x="577.177" y="184.054" width="17.3704" height="4.54799" rx="2.27399" fill="#9C9C9C"/>
<rect x="564.637" y="208.296" width="6.33846" height="6.33846" rx="3.16923" fill="#D1D1D1"/>
<rect x="577.177" y="209.191" width="17.3704" height="4.54799" rx="2.27399" fill="#9C9C9C"/>
<rect x="553" y="63.9971" width="78.0083" height="457.875" stroke="#979797"/>
</g>
<rect x="644.574" y="74.1699" width="78.2246" height="12.4345" rx="6.21723" fill="white"/>
<path d="M654.09 82.889L652.458 81.2578" stroke="black" stroke-width="0.849567" stroke-linecap="round" stroke-linejoin="round"/>
<circle cx="650.827" cy="79.627" r="2.17489" stroke="black" stroke-width="0.849567" stroke-linecap="round" stroke-linejoin="round"/>
<path d="M650.942 112.05L648.382 114.594L650.942 117.138" stroke="#747382" stroke-width="0.847917" stroke-linecap="round" stroke-linejoin="round"/>
<rect x="661.745" y="99.8126" width="72.5256" height="29.5474" rx="3.17969" fill="white" fill-opacity="0.89"/>
<rect x="661.745" y="99.8126" width="72.5256" height="29.5474" rx="3.17969" stroke="#E5E7EC" stroke-width="0.423958"/>
<rect x="671.931" y="107.734" width="6.85586" height="6.85586" rx="3.42793" fill="#D1D1D1"/>
<rect x="671.931" y="117.732" width="11.7121" height="3.71359" rx="1.8568" fill="#909090"/>
<rect x="742.015" y="99.8126" width="72.5256" height="29.5474" rx="3.17969" fill="white" fill-opacity="0.89"/>
<rect x="742.015" y="99.8126" width="72.5256" height="29.5474" rx="3.17969" stroke="#E5E7EC" stroke-width="0.423958"/>
<rect x="752.644" y="107.734" width="6.85586" height="6.85586" rx="3.42793" fill="#D1D1D1"/>
<rect x="752.644" y="117.732" width="11.7121" height="3.71359" rx="1.8568" fill="#909090"/>
<rect x="822.284" y="99.8126" width="72.5256" height="29.5474" rx="3.17969" fill="white" fill-opacity="0.89"/>
<rect x="822.284" y="99.8126" width="72.5256" height="29.5474" rx="3.17969" stroke="#E5E7EC" stroke-width="0.423958"/>
<rect x="833.353" y="107.734" width="6.85586" height="6.85586" rx="3.42793" fill="#D1D1D1"/>
<rect x="833.353" y="117.732" width="11.7121" height="3.71359" rx="1.8568" fill="#909090"/>
<rect x="902.554" y="99.8126" width="72.5256" height="29.5474" rx="3.17969" fill="white" fill-opacity="0.8"/>
<rect x="912.508" y="107.734" width="6.85586" height="6.85586" rx="3.42793" fill="#D1D1D1"/>
<rect x="912.508" y="117.732" width="11.7121" height="3.71359" rx="1.8568" fill="#909090"/>
<rect x="902.554" y="99.8126" width="72.5256" height="29.5474" rx="3.17969" stroke="#E5E7EC" stroke-width="0.423958"/>
<rect x="982.823" y="99.8126" width="72.5256" height="29.5474" rx="3.17969" fill="white" fill-opacity="0.8"/>
<rect x="993.221" y="107.734" width="6.85586" height="6.85586" rx="3.42793" fill="#D1D1D1"/>
<rect x="993.221" y="117.732" width="11.7121" height="3.71359" rx="1.8568" fill="#909090"/>
<rect x="982.823" y="99.8126" width="72.5256" height="29.5474" rx="3.17969" stroke="#E5E7EC" stroke-width="0.423958"/>
<g filter="url(#filter2_d_545_103324)">
<rect x="1062.89" y="93.3887" width="73.486" height="42.3958" rx="3.39167" fill="white"/>
<rect x="1077.3" y="104.41" width="10.175" height="10.175" rx="5.0875" fill="#D1D1D1"/>
<rect x="1077.3" y="119.249" width="17.3823" height="5.51146" rx="2.75573" fill="#474747"/>
<rect x="1062.89" y="93.3887" width="73.486" height="42.3958" rx="3.39167" stroke="#979797" stroke-width="1.85681"/>
</g>
<path d="M1146.96 112.05L1149.52 114.594L1146.96 117.138" stroke="#747382" stroke-width="0.847917" stroke-linecap="round" stroke-linejoin="round"/>
<g clip-path="url(#clip2_545_103324)">
<rect x="644.574" y="149.351" width="335.775" height="358.953" rx="2.54375" fill="white" fill-opacity="0.89"/>
<path d="M651.356 186.45H973.564" stroke="#F0F4FA" stroke-width="0.423958" stroke-linecap="square"/>
<rect x="685.275" y="167.794" width="31.7969" height="4.23958" rx="2.11979" fill="#474747"/>
<rect x="685.275" y="175.426" width="20.774" height="3.39167" rx="1.69583" fill="#9C9C9C"/>
<rect x="658.353" y="164.83" width="16.5344" height="16.5344" rx="0.211979" fill="white" stroke="#838383" stroke-width="0.423958"/>
<rect x="773.881" y="167.795" width="31.7969" height="4.23958" rx="2.11979" fill="#474747"/>
<rect x="773.881" y="175.427" width="20.774" height="3.39167" rx="1.69583" fill="#9C9C9C"/>
<path opacity="0.41" d="M915.853 173.096C915.853 174.998 917.395 176.54 919.297 176.54C921.2 176.54 922.742 174.998 922.742 173.096H923.272C923.272 175.291 921.493 177.07 919.297 177.07C917.102 177.07 915.323 175.291 915.323 173.096H915.853Z" fill="#747382"/>
<path fill-rule="evenodd" clip-rule="evenodd" d="M919.297 173.827L920.802 172.089H919.562V169.407H919.033V172.089H917.793L919.297 173.827Z" fill="#747382"/>
<path opacity="0.406545" d="M936.203 173.097C936.203 174.999 937.745 176.541 939.647 176.541C941.55 176.541 943.092 174.999 943.092 173.097H943.622C943.622 175.292 941.843 177.071 939.647 177.071C937.452 177.071 935.673 175.292 935.673 173.097H936.203Z" fill="#747382"/>
<path d="M939.403 170.182V174.156H939.933V170.182H939.403Z" fill="#747382"/>
<path d="M938.163 171.453L939.668 169.716L941.173 171.453L938.163 171.453Z" fill="#747382"/>
<mask id="mask0_545_103324" style="mask-type:luminance" maskUnits="userSpaceOnUse" x="955" y="168" width="10" height="10">
<rect x="955.758" y="168.856" width="8.47917" height="8.47917" fill="white"/>
</mask>
<g mask="url(#mask0_545_103324)">
<circle cx="956.606" cy="173.096" r="0.847917" fill="#747382"/>
<circle cx="963.389" cy="173.096" r="0.847917" fill="#747382"/>
<circle cx="959.997" cy="173.096" r="0.847917" fill="#747382"/>
</g>
<path d="M651.356 220.364H973.564" stroke="#F0F4FA" stroke-width="0.423958" stroke-linecap="square"/>
<rect x="685.275" y="201.711" width="31.7969" height="4.23958" rx="2.11979" fill="#474747"/>
<rect x="685.275" y="209.343" width="20.774" height="3.39167" rx="1.69583" fill="#9C9C9C"/>
<rect x="658.353" y="198.742" width="16.5344" height="16.5344" rx="0.211979" fill="white" stroke="#838383" stroke-width="0.423958"/>
<rect x="773.881" y="201.711" width="31.7969" height="4.23958" rx="2.11979" fill="#474747"/>
<rect x="773.881" y="209.343" width="20.774" height="3.39167" rx="1.69583" fill="#9C9C9C"/>
<path opacity="0.41" d="M915.853 207.014C915.853 208.916 917.395 210.458 919.297 210.458C921.2 210.458 922.742 208.916 922.742 207.014H923.272C923.272 209.209 921.493 210.988 919.297 210.988C917.102 210.988 915.323 209.209 915.323 207.014H915.853Z" fill="#747382"/>
<path fill-rule="evenodd" clip-rule="evenodd" d="M919.297 207.745L920.802 206.007H919.562V203.325H919.033V206.007H917.793L919.297 207.745Z" fill="#747382"/>
<path opacity="0.406545" d="M936.203 207.015C936.203 208.917 937.745 210.459 939.647 210.459C941.55 210.459 943.092 208.917 943.092 207.015H943.622C943.622 209.21 941.843 210.989 939.647 210.989C937.452 210.989 935.673 209.21 935.673 207.015H936.203Z" fill="#747382"/>
<path d="M939.403 204.1V208.074H939.933V204.1H939.403Z" fill="#747382"/>
<path d="M938.163 205.371L939.668 203.634L941.173 205.371L938.163 205.371Z" fill="#747382"/>
<mask id="mask1_545_103324" style="mask-type:luminance" maskUnits="userSpaceOnUse" x="955" y="202" width="10" height="10">
<rect x="955.758" y="202.774" width="8.47917" height="8.47917" fill="white"/>
</mask>
<g mask="url(#mask1_545_103324)">
<circle cx="956.606" cy="207.014" r="0.847917" fill="#747382"/>
<circle cx="963.389" cy="207.014" r="0.847917" fill="#747382"/>
<circle cx="959.997" cy="207.014" r="0.847917" fill="#747382"/>
</g>
<path d="M651.356 254.288H973.564" stroke="#F0F4FA" stroke-width="0.423958" stroke-linecap="square"/>
<rect x="685.274" y="235.628" width="31.7969" height="4.23958" rx="2.11979" fill="#474747"/>
<rect x="685.274" y="243.26" width="20.774" height="3.39167" rx="1.69583" fill="#9C9C9C"/>
<rect x="658.352" y="232.661" width="16.5344" height="16.5344" rx="0.211979" fill="white" stroke="#838383" stroke-width="0.423958"/>
<rect x="773.881" y="235.627" width="31.7969" height="4.23958" rx="2.11979" fill="#474747"/>
<rect x="773.881" y="243.259" width="20.774" height="3.39167" rx="1.69583" fill="#9C9C9C"/>
<path opacity="0.41" d="M915.853 240.932C915.853 242.834 917.395 244.376 919.297 244.376C921.2 244.376 922.742 242.834 922.742 240.932H923.272C923.272 243.127 921.493 244.906 919.297 244.906C917.102 244.906 915.323 243.127 915.323 240.932H915.853Z" fill="#747382"/>
<path fill-rule="evenodd" clip-rule="evenodd" d="M919.297 241.663L920.802 239.925H919.562V237.243H919.033V239.925H917.793L919.297 241.663Z" fill="#747382"/>
<path opacity="0.406545" d="M936.203 240.933C936.203 242.835 937.745 244.377 939.647 244.377C941.55 244.377 943.092 242.835 943.092 240.933H943.622C943.622 243.128 941.843 244.907 939.647 244.907C937.452 244.907 935.673 243.128 935.673 240.933H936.203Z" fill="#747382"/>
<path d="M939.403 238.018V241.992H939.933V238.018H939.403Z" fill="#747382"/>
<path d="M938.163 239.289L939.668 237.552L941.173 239.289L938.163 239.289Z" fill="#747382"/>
<mask id="mask2_545_103324" style="mask-type:luminance" maskUnits="userSpaceOnUse" x="955" y="236" width="10" height="10">
<rect x="955.758" y="236.692" width="8.47917" height="8.47917" fill="white"/>
</mask>
<g mask="url(#mask2_545_103324)">
<circle cx="956.606" cy="240.932" r="0.847917" fill="#747382"/>
<circle cx="963.389" cy="240.932" r="0.847917" fill="#747382"/>
<circle cx="959.997" cy="240.932" r="0.847917" fill="#747382"/>
</g>
<path d="M651.356 288.192H973.564" stroke="#F0F4FA" stroke-width="0.423958" stroke-linecap="square"/>
<rect x="685.274" y="269.544" width="31.7969" height="4.23958" rx="2.11979" fill="#474747"/>
<rect x="685.274" y="277.176" width="20.774" height="3.39167" rx="1.69583" fill="#9C9C9C"/>
<rect x="658.352" y="266.577" width="16.5344" height="16.5344" rx="0.211979" fill="white" stroke="#838383" stroke-width="0.423958"/>
<rect x="773.881" y="269.541" width="31.7969" height="4.23958" rx="2.11979" fill="#474747"/>
<rect x="773.881" y="277.173" width="20.774" height="3.39167" rx="1.69583" fill="#9C9C9C"/>
<path opacity="0.41" d="M915.853 274.836C915.853 276.738 917.395 278.281 919.297 278.281C921.2 278.281 922.742 276.738 922.742 274.836H923.272C923.272 277.031 921.493 278.811 919.297 278.811C917.102 278.811 915.323 277.031 915.323 274.836H915.853Z" fill="#747382"/>
<path fill-rule="evenodd" clip-rule="evenodd" d="M919.297 275.567L920.802 273.83H919.562V271.148H919.033V273.83H917.793L919.297 275.567Z" fill="#747382"/>
<path opacity="0.406545" d="M936.203 274.837C936.203 276.739 937.745 278.282 939.647 278.282C941.55 278.282 943.092 276.739 943.092 274.837H943.622C943.622 277.032 941.843 278.812 939.647 278.812C937.452 278.812 935.673 277.032 935.673 274.837H936.203Z" fill="#747382"/>
<path d="M939.403 271.922V275.896H939.933V271.922H939.403Z" fill="#747382"/>
<path d="M938.163 273.194L939.668 271.456L941.173 273.194H938.163Z" fill="#747382"/>
<mask id="mask3_545_103324" style="mask-type:luminance" maskUnits="userSpaceOnUse" x="955" y="270" width="10" height="10">
<rect x="955.758" y="270.597" width="8.47917" height="8.47917" fill="white"/>
</mask>
<g mask="url(#mask3_545_103324)">
<circle cx="956.606" cy="274.836" r="0.847917" fill="#747382"/>
<circle cx="963.389" cy="274.836" r="0.847917" fill="#747382"/>
<circle cx="959.997" cy="274.836" r="0.847917" fill="#747382"/>
</g>
<path d="M651.356 322.112H973.564" stroke="#F0F4FA" stroke-width="0.423958" stroke-linecap="square"/>
<rect x="685.274" y="303.459" width="31.7969" height="4.23958" rx="2.11979" fill="#474747"/>
<rect x="685.274" y="311.091" width="20.774" height="3.39167" rx="1.69583" fill="#9C9C9C"/>
<rect x="658.352" y="300.49" width="16.5344" height="16.5344" rx="0.211979" fill="white" stroke="#838383" stroke-width="0.423958"/>
<rect x="773.881" y="303.459" width="31.7969" height="4.23958" rx="2.11979" fill="#474747"/>
<rect x="773.881" y="311.091" width="20.774" height="3.39167" rx="1.69583" fill="#9C9C9C"/>
<path opacity="0.41" d="M915.853 308.758C915.853 310.66 917.395 312.202 919.297 312.202C921.2 312.202 922.742 310.66 922.742 308.758H923.272C923.272 310.953 921.493 312.732 919.297 312.732C917.102 312.732 915.323 310.953 915.323 308.758H915.853Z" fill="#747382"/>
<path fill-rule="evenodd" clip-rule="evenodd" d="M919.297 309.489L920.802 307.752H919.562V305.069H919.033V307.752H917.793L919.297 309.489Z" fill="#747382"/>
<path opacity="0.406545" d="M936.203 308.759C936.203 310.661 937.745 312.203 939.647 312.203C941.55 312.203 943.092 310.661 943.092 308.759H943.622C943.622 310.954 941.843 312.733 939.647 312.733C937.452 312.733 935.673 310.954 935.673 308.759H936.203Z" fill="#747382"/>
<path d="M939.403 305.844V309.818H939.933V305.844H939.403Z" fill="#747382"/>
<path d="M938.163 307.116L939.668 305.378L941.173 307.116H938.163Z" fill="#747382"/>
<mask id="mask4_545_103324" style="mask-type:luminance" maskUnits="userSpaceOnUse" x="955" y="304" width="10" height="9">
<rect x="955.758" y="304.519" width="8.47917" height="8.47917" fill="white"/>
</mask>
<g mask="url(#mask4_545_103324)">
<circle cx="956.606" cy="308.758" r="0.847917" fill="#747382"/>
<circle cx="963.389" cy="308.758" r="0.847917" fill="#747382"/>
<circle cx="959.997" cy="308.758" r="0.847917" fill="#747382"/>
</g>
<path d="M651.356 356.03H973.564" stroke="#F0F4FA" stroke-width="0.423958" stroke-linecap="square"/>
<rect x="685.274" y="337.378" width="31.7969" height="4.23958" rx="2.11979" fill="#474747"/>
<rect x="685.274" y="345.01" width="20.774" height="3.39167" rx="1.69583" fill="#9C9C9C"/>
<rect x="658.353" y="334.411" width="16.5344" height="16.5344" rx="0.211979" fill="white" stroke="#838383" stroke-width="0.423958"/>
<rect x="773.881" y="337.375" width="31.7969" height="4.23958" rx="2.11979" fill="#474747"/>
<rect x="773.881" y="345.007" width="20.774" height="3.39167" rx="1.69583" fill="#9C9C9C"/>
<path opacity="0.41" d="M915.853 342.674C915.853 344.576 917.395 346.118 919.297 346.118C921.2 346.118 922.742 344.576 922.742 342.674H923.272C923.272 344.869 921.493 346.648 919.297 346.648C917.102 346.648 915.323 344.869 915.323 342.674H915.853Z" fill="#747382"/>
<path fill-rule="evenodd" clip-rule="evenodd" d="M919.297 343.405L920.802 341.668H919.562V338.985H919.033V341.668H917.793L919.297 343.405Z" fill="#747382"/>
<path opacity="0.406545" d="M936.203 342.675C936.203 344.577 937.745 346.119 939.647 346.119C941.55 346.119 943.092 344.577 943.092 342.675H943.622C943.622 344.87 941.843 346.649 939.647 346.649C937.452 346.649 935.673 344.87 935.673 342.675H936.203Z" fill="#747382"/>
<path d="M939.403 339.76V343.734H939.933V339.76H939.403Z" fill="#747382"/>
<path d="M938.163 341.032L939.668 339.294L941.173 341.032H938.163Z" fill="#747382"/>
<mask id="mask5_545_103324" style="mask-type:luminance" maskUnits="userSpaceOnUse" x="955" y="338" width="10" height="9">
<rect x="955.758" y="338.435" width="8.47917" height="8.47917" fill="white"/>
</mask>
<g mask="url(#mask5_545_103324)">
<circle cx="956.606" cy="342.674" r="0.847917" fill="#747382"/>
<circle cx="963.389" cy="342.674" r="0.847917" fill="#747382"/>
<circle cx="959.997" cy="342.674" r="0.847917" fill="#747382"/>
</g>
<path d="M651.356 389.946H973.564" stroke="#F0F4FA" stroke-width="0.423958" stroke-linecap="square"/>
<rect x="685.274" y="371.294" width="31.7969" height="4.23958" rx="2.11979" fill="#474747"/>
<rect x="685.274" y="378.926" width="20.774" height="3.39167" rx="1.69583" fill="#9C9C9C"/>
<rect x="658.352" y="368.327" width="16.5344" height="16.5344" rx="0.211979" fill="white" stroke="#838383" stroke-width="0.423958"/>
<rect x="773.881" y="371.293" width="31.7969" height="4.23958" rx="2.11979" fill="#474747"/>
<rect x="773.881" y="378.925" width="20.774" height="3.39167" rx="1.69583" fill="#9C9C9C"/>
<path opacity="0.41" d="M915.853 376.594C915.853 378.496 917.395 380.038 919.297 380.038C921.2 380.038 922.742 378.496 922.742 376.594H923.272C923.272 378.789 921.493 380.568 919.297 380.568C917.102 380.568 915.323 378.789 915.323 376.594H915.853Z" fill="#747382"/>
<path fill-rule="evenodd" clip-rule="evenodd" d="M919.297 377.325L920.802 375.588H919.562V372.905H919.033V375.588H917.793L919.297 377.325Z" fill="#747382"/>
<path opacity="0.406545" d="M936.203 376.595C936.203 378.497 937.745 380.039 939.647 380.039C941.55 380.039 943.092 378.497 943.092 376.595H943.622C943.622 378.79 941.843 380.569 939.647 380.569C937.452 380.569 935.673 378.79 935.673 376.595H936.203Z" fill="#747382"/>
<path d="M939.403 373.68V377.654H939.933V373.68H939.403Z" fill="#747382"/>
<path d="M938.163 374.952L939.668 373.214L941.173 374.952H938.163Z" fill="#747382"/>
<mask id="mask6_545_103324" style="mask-type:luminance" maskUnits="userSpaceOnUse" x="955" y="372" width="10" height="9">
<rect x="955.758" y="372.354" width="8.47917" height="8.47917" fill="white"/>
</mask>
<g mask="url(#mask6_545_103324)">
<circle cx="956.606" cy="376.594" r="0.847917" fill="#747382"/>
<circle cx="963.389" cy="376.594" r="0.847917" fill="#747382"/>
<circle cx="959.997" cy="376.594" r="0.847917" fill="#747382"/>
</g>
<path d="M651.356 423.864H973.564" stroke="#F0F4FA" stroke-width="0.423958" stroke-linecap="square"/>
<rect x="685.274" y="405.213" width="31.7969" height="4.23958" rx="2.11979" fill="#474747"/>
<rect x="685.274" y="412.845" width="20.774" height="3.39167" rx="1.69583" fill="#9C9C9C"/>
<rect x="658.352" y="402.246" width="16.5344" height="16.5344" rx="0.211979" fill="white" stroke="#838383" stroke-width="0.423958"/>
<rect x="773.881" y="405.209" width="31.7969" height="4.23958" rx="2.11979" fill="#474747"/>
<rect x="773.881" y="412.841" width="20.774" height="3.39167" rx="1.69583" fill="#9C9C9C"/>
<path opacity="0.41" d="M915.853 410.51C915.853 412.412 917.395 413.954 919.297 413.954C921.2 413.954 922.742 412.412 922.742 410.51H923.272C923.272 412.705 921.493 414.484 919.297 414.484C917.102 414.484 915.323 412.705 915.323 410.51H915.853Z" fill="#747382"/>
<path fill-rule="evenodd" clip-rule="evenodd" d="M919.297 411.241L920.802 409.504H919.562V406.821H919.033V409.504H917.793L919.297 411.241Z" fill="#747382"/>
<path opacity="0.406545" d="M936.203 410.511C936.203 412.413 937.745 413.955 939.647 413.955C941.55 413.955 943.092 412.413 943.092 410.511H943.622C943.622 412.706 941.843 414.485 939.647 414.485C937.452 414.485 935.673 412.706 935.673 410.511H936.203Z" fill="#747382"/>
<path d="M939.403 407.596V411.57H939.933V407.596H939.403Z" fill="#747382"/>
<path d="M938.163 408.868L939.668 407.13L941.173 408.868H938.163Z" fill="#747382"/>
<mask id="mask7_545_103324" style="mask-type:luminance" maskUnits="userSpaceOnUse" x="955" y="406" width="10" height="9">
<rect x="955.758" y="406.271" width="8.47917" height="8.47917" fill="white"/>
</mask>
<g mask="url(#mask7_545_103324)">
<circle cx="956.606" cy="410.51" r="0.847917" fill="#747382"/>
<circle cx="963.389" cy="410.51" r="0.847917" fill="#747382"/>
<circle cx="959.997" cy="410.51" r="0.847917" fill="#747382"/>
</g>
<path d="M651.356 457.78H973.564" stroke="#F0F4FA" stroke-width="0.423958" stroke-linecap="square"/>
<rect x="685.273" y="439.127" width="31.7969" height="4.23958" rx="2.11979" fill="#474747"/>
<rect x="685.273" y="446.759" width="20.774" height="3.39167" rx="1.69583" fill="#9C9C9C"/>
<rect x="658.352" y="436.16" width="16.5344" height="16.5344" rx="0.211979" fill="white" stroke="#838383" stroke-width="0.423958"/>
<rect x="773.881" y="439.127" width="31.7969" height="4.23958" rx="2.11979" fill="#474747"/>
<rect x="773.881" y="446.759" width="20.774" height="3.39167" rx="1.69583" fill="#9C9C9C"/>
<path opacity="0.41" d="M915.853 444.426C915.853 446.328 917.395 447.87 919.297 447.87C921.2 447.87 922.742 446.328 922.742 444.426H923.272C923.272 446.621 921.493 448.4 919.297 448.4C917.102 448.4 915.323 446.621 915.323 444.426H915.853Z" fill="#747382"/>
<path fill-rule="evenodd" clip-rule="evenodd" d="M919.297 445.157L920.802 443.42H919.562V440.737H919.033V443.42H917.793L919.297 445.157Z" fill="#747382"/>
<path opacity="0.406545" d="M936.203 444.427C936.203 446.329 937.745 447.871 939.647 447.871C941.55 447.871 943.092 446.329 943.092 444.427H943.622C943.622 446.622 941.843 448.401 939.647 448.401C937.452 448.401 935.673 446.622 935.673 444.427H936.203Z" fill="#747382"/>
<path d="M939.403 441.512V445.486H939.933V441.512H939.403Z" fill="#747382"/>
<path d="M938.163 442.784L939.668 441.046L941.173 442.784H938.163Z" fill="#747382"/>
<mask id="mask8_545_103324" style="mask-type:luminance" maskUnits="userSpaceOnUse" x="955" y="440" width="10" height="9">
<rect x="955.758" y="440.187" width="8.47917" height="8.47917" fill="white"/>
</mask>
<g mask="url(#mask8_545_103324)">
<circle cx="956.606" cy="444.426" r="0.847917" fill="#747382"/>
<circle cx="963.389" cy="444.426" r="0.847917" fill="#747382"/>
<circle cx="959.997" cy="444.426" r="0.847917" fill="#747382"/>
</g>
<path d="M651.356 491.7H973.564" stroke="#F0F4FA" stroke-width="0.423958" stroke-linecap="square"/>
<rect x="685.274" y="473.04" width="31.7969" height="4.23958" rx="2.11979" fill="#474747"/>
<rect x="685.274" y="480.672" width="20.774" height="3.39167" rx="1.69583" fill="#9C9C9C"/>
<rect x="658.352" y="470.073" width="16.5344" height="16.5344" rx="0.211979" fill="white" stroke="#838383" stroke-width="0.423958"/>
<rect x="773.881" y="473.05" width="31.7969" height="4.23958" rx="2.11979" fill="#474747"/>
<rect x="773.881" y="480.681" width="20.774" height="3.39167" rx="1.69583" fill="#9C9C9C"/>
<path opacity="0.41" d="M915.853 478.344C915.853 480.246 917.395 481.788 919.297 481.788C921.2 481.788 922.742 480.246 922.742 478.344H923.272C923.272 480.539 921.493 482.318 919.297 482.318C917.102 482.318 915.323 480.539 915.323 478.344H915.853Z" fill="#747382"/>
<path fill-rule="evenodd" clip-rule="evenodd" d="M919.297 479.075L920.802 477.338H919.562V474.655H919.033V477.338H917.793L919.297 479.075Z" fill="#747382"/>
<path opacity="0.406545" d="M936.203 478.345C936.203 480.247 937.745 481.789 939.647 481.789C941.55 481.789 943.092 480.247 943.092 478.345H943.622C943.622 480.54 941.843 482.319 939.647 482.319C937.452 482.319 935.673 480.54 935.673 478.345H936.203Z" fill="#747382"/>
<path d="M939.403 475.43V479.404H939.933V475.43H939.403Z" fill="#747382"/>
<path d="M938.163 476.702L939.668 474.964L941.173 476.702H938.163Z" fill="#747382"/>
<mask id="mask9_545_103324" style="mask-type:luminance" maskUnits="userSpaceOnUse" x="955" y="474" width="10" height="9">
<rect x="955.758" y="474.104" width="8.47917" height="8.47917" fill="white"/>
</mask>
<g mask="url(#mask9_545_103324)">
<circle cx="956.606" cy="478.344" r="0.847917" fill="#747382"/>
<circle cx="963.389" cy="478.344" r="0.847917" fill="#747382"/>
<circle cx="959.997" cy="478.344" r="0.847917" fill="#747382"/>
</g>
<rect x="685.273" y="506.971" width="31.7969" height="4.23958" rx="2.11979" fill="#474747"/>
<rect x="658.352" y="504.004" width="16.5344" height="16.5344" rx="0.211979" fill="white" stroke="#838383" stroke-width="0.423958"/>
<rect x="773.881" y="506.959" width="31.7969" height="4.23958" rx="2.11979" fill="#474747"/>
</g>
<rect x="990.524" y="149.351" width="163.648" height="57.6583" rx="3.39167" fill="white"/>
<rect x="1010.74" y="172.455" width="13.9906" height="3.81562" rx="1.90781" fill="#9C9C9C"/>
<rect x="1005.65" y="179.662" width="24.1656" height="4.23958" rx="2.11979" fill="#474747"/>
<path d="M1044.73 159.523V196.832" stroke="#F0F4FA" stroke-width="0.423958" stroke-linecap="square"/>
<rect x="1065.37" y="172.455" width="13.9906" height="3.81562" rx="1.90781" fill="#9C9C9C"/>
<rect x="1060.29" y="179.662" width="24.1656" height="4.23958" rx="2.11979" fill="#474747"/>
<path d="M1099.99 159.523V196.832" stroke="#F0F4FA" stroke-width="0.423958" stroke-linecap="square"/>
<rect x="1120.01" y="172.455" width="13.9906" height="3.81562" rx="1.90781" fill="#9C9C9C"/>
<rect x="1114.92" y="179.662" width="24.1656" height="4.23958" rx="2.11979" fill="#474747"/>
<rect x="990.524" y="217.184" width="163.648" height="291.12" rx="2.54375" fill="white"/>
<path d="M1115.59 306.479C1115.59 315.611 1112.7 324.509 1107.33 331.897C1101.97 339.285 1094.4 344.784 1085.71 347.606C1077.03 350.428 1067.67 350.428 1058.99 347.606C1050.3 344.784 1042.73 339.285 1037.36 331.897C1032 324.509 1029.1 315.611 1029.1 306.479C1029.1 297.347 1032 288.449 1037.36 281.061C1042.73 273.673 1050.3 268.174 1058.99 265.352C1067.67 262.53 1077.03 262.53 1085.71 265.352" stroke="#474747" stroke-width="5.0875"/>
<path d="M1085.64 265.329C1091.13 267.103 1096.21 269.958 1100.58 273.725C1104.95 277.493 1108.53 282.097 1111.09 287.267" stroke="#9C9C9C" stroke-width="5.0875"/>
<path d="M1111.13 287.348C1113.54 292.236 1115.01 297.536 1115.45 302.969" stroke="#D3D3D3" stroke-width="5.0875"/>
<path d="M1115.45 303.018C1115.55 304.192 1115.59 305.369 1115.59 306.546" stroke="#E9E9E9" stroke-width="5.0875"/>
<rect x="1010.87" y="372.617" width="122.948" height="12.8695" rx="6.43477" fill="#E1E1E1"/>
<rect x="1010.87" y="399.054" width="122.948" height="12.8695" rx="6.43477" fill="#E1E1E1"/>
<rect x="1010.87" y="425.489" width="122.948" height="12.8695" rx="6.43477" fill="#E1E1E1"/>
<rect x="1010.87" y="451.926" width="122.948" height="12.8695" rx="6.43477" fill="#E1E1E1"/>
</g>
</g>
<defs>
<filter id="filter0_d_545_103324" x="542.585" y="56.7856" width="834.83" height="478.709" filterUnits="userSpaceOnUse" color-interpolation-filters="sRGB">
<feFlood flood-opacity="0" result="BackgroundImageFix"/>
<feColorMatrix in="SourceAlpha" type="matrix" values="0 0 0 0 0 0 0 0 0 0 0 0 0 0 0 0 0 0 127 0" result="hardAlpha"/>
<feOffset dy="3.20465"/>
<feGaussianBlur stdDeviation="5.20756"/>
<feComposite in2="hardAlpha" operator="out"/>
<feColorMatrix type="matrix" values="0 0 0 0 0 0 0 0 0 0 0 0 0 0 0 0 0 0 0.16 0"/>
<feBlend mode="normal" in2="BackgroundImageFix" result="effect1_dropShadow_545_103324"/>
<feBlend mode="normal" in="SourceGraphic" in2="effect1_dropShadow_545_103324" result="shape"/>
</filter>
<filter id="filter1_d_545_103324" x="548.761" y="61.0294" width="85.6396" height="465.506" filterUnits="userSpaceOnUse" color-interpolation-filters="sRGB">
<feFlood flood-opacity="0" result="BackgroundImageFix"/>
<feColorMatrix in="SourceAlpha" type="matrix" values="0 0 0 0 0 0 0 0 0 0 0 0 0 0 0 0 0 0 127 0" result="hardAlpha"/>
<feOffset dx="-0.423958" dy="0.847917"/>
<feGaussianBlur stdDeviation="1.90781"/>
<feColorMatrix type="matrix" values="0 0 0 0 0 0 0 0 0 0 0 0 0 0 0 0 0 0 0.161686 0"/>
<feBlend mode="normal" in2="BackgroundImageFix" result="effect1_dropShadow_545_103324"/>
<feBlend mode="normal" in="SourceGraphic" in2="effect1_dropShadow_545_103324" result="shape"/>
</filter>
<filter id="filter2_d_545_103324" x="1041.61" y="80.5891" width="116.043" height="84.9529" filterUnits="userSpaceOnUse" color-interpolation-filters="sRGB">
<feFlood flood-opacity="0" result="BackgroundImageFix"/>
<feColorMatrix in="SourceAlpha" type="matrix" values="0 0 0 0 0 0 0 0 0 0 0 0 0 0 0 0 0 0 127 0" result="hardAlpha"/>
<feOffset dy="8.47917"/>
<feGaussianBlur stdDeviation="10.175"/>
<feColorMatrix type="matrix" values="0 0 0 0 0 0 0 0 0 0 0 0 0 0 0 0 0 0 0.1471 0"/>
<feBlend mode="normal" in2="BackgroundImageFix" result="effect1_dropShadow_545_103324"/>
<feBlend mode="normal" in="SourceGraphic" in2="effect1_dropShadow_545_103324" result="shape"/>
</filter>
<clipPath id="clip0_545_103324">
<rect width="814" height="457.875" fill="white" transform="translate(553 63.9961)"/>
</clipPath>
<clipPath id="clip1_545_103324">
<rect width="200.108" height="457.875" fill="white" transform="translate(1166.89 63.9971)"/>
</clipPath>
<clipPath id="clip2_545_103324">
<rect x="644.574" y="149.351" width="335.775" height="358.953" rx="2.54375" fill="white"/>
</clipPath>
</defs>
</svg>
