<svg width="250" height="36" viewBox="0 0 250 36" fill="none" xmlns="http://www.w3.org/2000/svg">
<path fill-rule="evenodd" clip-rule="evenodd" d="M27.2319 25.0192H8.51004L17.8199 8.93543L27.2319 25.0192ZM0 0V35.7417H35.7417V0H0ZM84.6951 11.6773H79.6184V29.1854H84.6951V11.6773ZM79.8788 8.42306C80.4645 8.96544 81.2239 9.23663 82.1568 9.23663C83.0897 9.23663 83.849 8.96544 84.4348 8.42306C85.0205 7.85898 85.3134 7.15389 85.3134 6.30777C85.3134 5.52675 85.0205 4.87589 84.4348 4.3552C83.849 3.83452 83.0897 3.57417 82.1568 3.57417C81.2239 3.57417 80.4645 3.84536 79.8788 4.38775C79.293 4.93013 79.0001 5.60268 79.0001 6.4054C79.0001 7.20813 79.293 7.88068 79.8788 8.42306ZM62.4587 16.6564V10.636H74.4019V6.4054H57.1868V29.1854H62.4587V20.887H73.0026V16.6564H62.4587ZM96.5788 13.9879C97.1863 13.1418 97.9998 12.5018 99.0195 12.0679C100.061 11.634 101.254 11.417 102.599 11.417V16.1032C102.035 16.0598 101.655 16.0381 101.46 16.0381C100.007 16.0381 98.8676 16.4503 98.0432 17.2747C97.2188 18.0774 96.8066 19.2924 96.8066 20.9195V29.1854H91.7299V11.6773H96.5788V13.9879ZM111.59 21.8633H124.835C124.9 21.0171 124.932 20.5615 124.932 20.4965C124.932 18.6741 124.531 17.0795 123.728 15.7127C122.947 14.3242 121.862 13.2611 120.474 12.5235C119.085 11.7858 117.534 11.417 115.82 11.417C114.063 11.417 112.468 11.8075 111.036 12.5885C109.626 13.3479 108.509 14.4218 107.685 15.8103C106.882 17.1771 106.48 18.7174 106.48 20.4314C106.48 22.167 106.893 23.7182 107.717 25.085C108.541 26.4518 109.713 27.5257 111.232 28.3067C112.75 29.0661 114.497 29.4457 116.471 29.4457C119.639 29.4457 122.047 28.502 123.696 26.6145L120.995 23.6857C120.387 24.2714 119.725 24.7053 119.009 24.9874C118.315 25.2477 117.512 25.3779 116.601 25.3779C115.278 25.3779 114.171 25.0633 113.282 24.4341C112.392 23.805 111.828 22.948 111.59 21.8633ZM112.956 16.2333C113.737 15.5825 114.703 15.2571 115.853 15.2571C116.981 15.2571 117.936 15.5933 118.717 16.2659C119.498 16.9167 119.975 17.7954 120.148 18.9019H111.525C111.698 17.7737 112.175 16.8842 112.956 16.2333ZM140.984 11.417C142.611 11.417 144.086 11.7967 145.41 12.556C146.755 13.2936 147.807 14.3459 148.566 15.7127C149.326 17.0578 149.705 18.6307 149.705 20.4314C149.705 22.2321 149.326 23.8158 148.566 25.1826C147.807 26.5277 146.755 27.5799 145.41 28.3393C144.086 29.0769 142.611 29.4457 140.984 29.4457C138.576 29.4457 136.743 28.6864 135.484 27.1677V29.1854H130.635V5.0386H135.712V13.5323C136.992 12.1221 138.749 11.417 140.984 11.417ZM140.105 25.2803C141.407 25.2803 142.47 24.8463 143.294 23.9785C144.141 23.089 144.564 21.9066 144.564 20.4314C144.564 18.9561 144.141 17.7846 143.294 16.9167C142.47 16.0272 141.407 15.5825 140.105 15.5825C138.804 15.5825 137.73 16.0272 136.884 16.9167C136.059 17.7846 135.647 18.9561 135.647 20.4314C135.647 21.9066 136.059 23.089 136.884 23.9785C137.73 24.8463 138.804 25.2803 140.105 25.2803ZM160.504 5.0386H155.427V29.1854H160.504V5.0386ZM175.87 29.4457C174.025 29.4457 172.366 29.0661 170.89 28.3067C169.437 27.5257 168.298 26.4518 167.473 25.085C166.649 23.7182 166.237 22.167 166.237 20.4314C166.237 18.6958 166.649 17.1445 167.473 15.7777C168.298 14.4109 169.437 13.3479 170.89 12.5885C172.366 11.8075 174.025 11.417 175.87 11.417C177.714 11.417 179.362 11.8075 180.816 12.5885C182.27 13.3479 183.409 14.4109 184.233 15.7777C185.057 17.1445 185.47 18.6958 185.47 20.4314C185.47 22.167 185.057 23.7182 184.233 25.085C183.409 26.4518 182.27 27.5257 180.816 28.3067C179.362 29.0661 177.714 29.4457 175.87 29.4457ZM175.87 25.2803C177.171 25.2803 178.234 24.8463 179.059 23.9785C179.905 23.089 180.328 21.9066 180.328 20.4314C180.328 18.9561 179.905 17.7846 179.059 16.9167C178.234 16.0272 177.171 15.5825 175.87 15.5825C174.568 15.5825 173.494 16.0272 172.648 16.9167C171.802 17.7846 171.379 18.9561 171.379 20.4314C171.379 21.9066 171.802 23.089 172.648 23.9785C173.494 24.8463 174.568 25.2803 175.87 25.2803ZM194.603 28.3067C196.1 29.0661 197.782 29.4457 199.647 29.4457C201.491 29.4457 203.097 29.0552 204.464 28.2742C205.852 27.4932 206.861 26.4084 207.49 25.0199L203.553 22.8721C202.663 24.4775 201.35 25.2803 199.615 25.2803C198.291 25.2803 197.196 24.8463 196.328 23.9785C195.46 23.1107 195.026 21.9283 195.026 20.4314C195.026 18.9344 195.46 17.752 196.328 16.8842C197.196 16.0164 198.291 15.5825 199.615 15.5825C201.329 15.5825 202.641 16.3852 203.553 17.9907L207.49 15.8754C206.861 14.4435 205.852 13.3479 204.464 12.5885C203.097 11.8075 201.491 11.417 199.647 11.417C197.782 11.417 196.1 11.8075 194.603 12.5885C193.128 13.3479 191.967 14.4109 191.121 15.7777C190.297 17.1445 189.885 18.6958 189.885 20.4314C189.885 22.167 190.297 23.7182 191.121 25.085C191.967 26.4518 193.128 27.5257 194.603 28.3067ZM220.127 22.3189L217.686 24.727V29.1854H212.609V5.0386H217.686V18.7066L225.106 11.6773H231.159L223.869 19.0971L231.81 29.1854H225.659L220.127 22.3189ZM237.471 28.9251C238.859 29.2722 240.281 29.4457 241.734 29.4457C243.448 29.4457 244.923 29.2179 246.16 28.7623C247.418 28.285 248.373 27.6233 249.024 26.7772C249.675 25.9311 250 24.9657 250 23.8809C250 22.6009 249.664 21.6029 248.991 20.887C248.319 20.171 247.527 19.6829 246.616 19.4225C245.704 19.1405 244.533 18.8802 243.101 18.6415C241.821 18.4463 240.888 18.2402 240.302 18.0232C239.716 17.8062 239.424 17.4266 239.424 16.8842C239.424 16.4069 239.695 16.0164 240.237 15.7127C240.78 15.4089 241.593 15.2571 242.678 15.2571C244.5 15.2571 246.182 15.691 247.722 16.5588L249.414 12.9465C248.611 12.4692 247.592 12.1004 246.355 11.8401C245.14 11.558 243.914 11.417 242.678 11.417C241.007 11.417 239.554 11.6556 238.317 12.1329C237.102 12.6102 236.169 13.2828 235.518 14.1506C234.889 14.9967 234.575 15.973 234.575 17.0795C234.575 18.4029 234.911 19.4225 235.584 20.1385C236.278 20.8544 237.091 21.3534 238.024 21.6355C238.957 21.9175 240.14 22.167 241.571 22.3839C242.786 22.5358 243.687 22.7202 244.272 22.9372C244.858 23.1541 245.151 23.5121 245.151 24.0111C245.151 25.0742 244.077 25.6057 241.929 25.6057C240.866 25.6057 239.782 25.4538 238.675 25.1501C237.569 24.8247 236.625 24.4124 235.844 23.9135L234.152 27.5583C234.976 28.1006 236.082 28.5562 237.471 28.9251Z" fill="#0348A2"/>
</svg>
