<svg width="56" height="56" viewBox="0 0 56 56" fill="none" xmlns="http://www.w3.org/2000/svg">
<rect width="56" height="56" rx="28" fill="#89B2FF" fill-opacity="0.1"/>
<path d="M39.0697 27.9999C39.0697 29.7468 38.6563 31.4689 37.8632 33.0254C37.0701 34.582 35.9199 35.9287 34.5066 36.9555C33.0933 37.9823 31.4571 38.66 29.7317 38.9333C28.0063 39.2066 26.2407 39.0676 24.5793 38.5278C22.9179 37.988 21.4078 37.0626 20.1725 35.8274C18.9373 34.5921 18.0119 33.082 17.4721 31.4206C16.9323 29.7592 16.7933 27.9936 17.0666 26.2682C17.3399 24.5428 18.0176 22.9066 19.0444 21.4933" stroke="#0348A2" stroke-width="3.71684"/>
<path d="M19.0331 21.5089C20.2544 19.8217 21.927 18.5133 23.8586 17.7341C25.7902 16.9548 27.9025 16.7364 29.9527 17.1038C32.0029 17.4712 33.9078 18.4096 35.4486 19.8111C36.9894 21.2126 38.1035 23.0204 38.663 25.0268" stroke="#0075F2" stroke-width="3.71684"/>
<path d="M35.6534 20.0022C37.6876 21.9488 38.9036 24.5975 39.0539 27.409" stroke="#89B2FF" stroke-width="3.71684"/>
<path d="M39.0342 27.114C39.0583 27.4144 39.0702 27.7158 39.0697 28.0172" stroke="#F59B00" stroke-width="3.71684"/>
</svg>
