<svg width="56" height="56" viewBox="0 0 56 56" fill="none" xmlns="http://www.w3.org/2000/svg">
<rect width="56" height="56" rx="28" fill="#89B2FF" fill-opacity="0.1"/>
<path d="M28.3135 23.3039H29.6071L42.6827 32.9617C43.0081 33.2018 43.2247 33.5613 43.285 33.9612C43.3453 34.361 43.2443 34.7685 43.0042 35.0939L42.8865 35.2506C42.646 35.5755 42.2865 35.7918 41.8868 35.8521C41.4871 35.9123 41.0799 35.8116 40.7543 35.572L40.1271 35.1096L35.6274 31.8014C35.5432 31.7416 35.4387 31.7174 35.3368 31.7341C35.2348 31.7508 35.1435 31.807 35.0827 31.8905C35.0219 31.9741 34.9964 32.0782 35.0118 32.1804C35.0272 32.2825 35.0823 32.3745 35.1651 32.4364L39.6571 35.7446C39.9833 35.9838 40.2012 36.3428 40.2629 36.7426C40.3246 37.1424 40.2251 37.5503 39.9863 37.8768L39.8687 38.0336C39.7497 38.1957 39.5997 38.3325 39.4274 38.436C39.2551 38.5396 39.064 38.608 38.8651 38.6371C38.6676 38.6683 38.4659 38.6593 38.272 38.6109C38.0781 38.5624 37.8959 38.4754 37.7363 38.3549L37.1014 37.8925L33.7227 35.3996C33.6382 35.3393 33.5334 35.3145 33.4308 35.3306C33.3282 35.3467 33.2361 35.4024 33.1741 35.4857C33.1428 35.5267 33.12 35.5736 33.107 35.6235C33.094 35.6735 33.0911 35.7255 33.0984 35.7765C33.1057 35.8276 33.123 35.8767 33.1495 35.9211C33.1759 35.9654 33.2109 36.004 33.2524 36.0346L36.6389 38.5274C36.7998 38.6455 36.9358 38.7943 37.039 38.9651C37.1423 39.136 37.2108 39.3255 37.2407 39.5229C37.2705 39.7202 37.2611 39.9216 37.213 40.1153C37.1649 40.309 37.079 40.4914 36.9602 40.6518L36.8428 40.8164C36.7242 40.978 36.5749 41.1146 36.4034 41.2182C36.2319 41.3219 36.0416 41.3907 35.8435 41.4206C35.6453 41.4504 35.4432 41.4408 35.2488 41.3923C35.0543 41.3438 34.8714 41.2573 34.7105 41.1379L34.0834 40.6753H34.0757L32.0057 39.1467C31.9214 39.0877 31.8173 39.0641 31.7157 39.081C31.6142 39.098 31.5234 39.1541 31.4628 39.2373C31.4023 39.3205 31.3768 39.4242 31.3918 39.526C31.4069 39.6279 31.4613 39.7197 31.5434 39.7818L33.6125 41.3027C33.9383 41.5422 34.156 41.9011 34.2178 42.3007C34.2796 42.7003 34.1805 43.1082 33.9422 43.4349L33.8245 43.5996C33.5828 43.9229 33.2235 44.1379 32.8243 44.1981C32.4252 44.2582 32.0184 44.1586 31.6922 43.9209L29.1445 42.0473L29.7789 40.9027C29.9294 40.6388 30.025 40.3473 30.06 40.0456C30.0951 39.7439 30.0688 39.4383 29.9828 39.147C29.9014 38.8554 29.7633 38.5827 29.5763 38.3446C29.3893 38.1064 29.1572 37.9076 28.8932 37.7593L28.7127 37.6652C28.4503 37.5184 28.1615 37.4248 27.8629 37.3899C27.5642 37.3549 27.2616 37.3792 26.9724 37.4615C27.0914 36.9735 27.047 36.46 26.8459 35.9998C26.6449 35.5395 26.2982 35.158 25.8593 34.9138L25.6868 34.8197C25.393 34.6545 25.0661 34.5568 24.7299 34.5338C24.3936 34.5107 24.0564 34.5628 23.7428 34.6864C23.7683 34.2541 23.6715 33.8233 23.4635 33.4434C23.2555 33.0636 22.9448 32.75 22.5669 32.5385L22.3945 32.4445C21.8946 32.1676 21.3097 32.0864 20.7533 32.2168C20.197 32.3471 19.709 32.6797 19.3841 33.1498C19.204 32.6064 18.8265 32.1503 18.3261 31.872L18.1538 31.77C17.6182 31.4736 16.9873 31.4004 16.3981 31.5663C16.1065 31.6479 15.8342 31.7871 15.5972 31.9756C15.3602 32.1641 15.1633 32.398 15.0181 32.6637L14.3051 33.9336C12.5793 32.9047 11.0847 31.5303 9.91518 29.8965L14.2428 21.1087C15.0402 21.3417 15.8655 21.4656 16.6961 21.4772C16.9901 21.477 17.2837 21.4535 17.574 21.4067C18.4588 21.15 19.3052 20.7756 20.0903 20.2935L20.1207 20.2773C21.9432 19.3074 24.3034 18.0513 26.3224 18.0279C23.9864 19.0549 21.6817 20.5835 21.3133 21.4067C20.8974 22.7716 20.6319 24.1778 20.5215 25.6004C20.4592 26.0972 20.5857 26.5993 20.8761 27.0073C21.1665 27.4153 21.5995 27.6993 22.0893 27.8031C22.6839 27.9335 23.3048 27.8655 23.857 27.6093C24.4092 27.3531 24.8621 26.923 25.1465 26.3847L26.0403 24.6839C26.2553 24.2668 26.5813 23.9172 26.9825 23.6736C27.3836 23.4301 27.8442 23.3022 28.3135 23.3039Z" fill="#89B2FF"/>
<path d="M5 28.7993L10.4719 17.9419L13.9367 19.9571L8.6061 30.7748L5 28.7993Z" fill="#89B2FF"/>
<path d="M28.9618 38.831C29.0857 38.9871 29.1772 39.1664 29.2308 39.3584C29.3413 39.7477 29.2935 40.1649 29.0978 40.519L27.6794 43.0589C27.5821 43.2345 27.4511 43.389 27.2938 43.5137C27.1365 43.6384 26.9561 43.7307 26.763 43.7853C26.5698 43.84 26.3678 43.8559 26.1685 43.8321C25.9692 43.8083 25.7766 43.7453 25.6017 43.6468L25.4293 43.5528C25.0781 43.3551 24.8192 43.0266 24.709 42.6389C24.5989 42.2512 24.6464 41.8356 24.8413 41.4828L25.5543 40.205L26.2598 38.9352C26.3572 38.7602 26.4885 38.6064 26.6459 38.4826C26.8033 38.3588 26.9838 38.2675 27.1768 38.214C27.312 38.176 27.4519 38.1575 27.5923 38.1592C27.8523 38.1591 28.1082 38.2237 28.337 38.3471L28.5094 38.4492C28.6841 38.545 28.838 38.6748 28.9618 38.831Z" fill="#0348A2"/>
<path d="M26.204 36.5136C26.314 36.9025 26.2664 37.319 26.0716 37.6731L24.8642 39.8291L24.1589 41.0992L23.6649 41.985C23.5674 42.1599 23.4361 42.3138 23.2787 42.4376C23.1213 42.5614 22.9408 42.6527 22.7478 42.7062C22.3586 42.8161 21.9418 42.7682 21.5876 42.5729L21.4152 42.471C21.0628 42.2745 20.8029 41.946 20.6926 41.5578C20.5824 41.1696 20.6308 40.7535 20.8273 40.401L22.0345 38.2453L23.2336 36.0893C23.4314 35.7361 23.7612 35.4757 24.1508 35.3655C24.5403 35.2552 24.9577 35.3041 25.3113 35.5013L25.4837 35.5954C25.8352 35.7949 26.094 36.1247 26.204 36.5136Z" fill="#0348A2"/>
<path d="M22.7792 35.2978L22.5518 35.7054L21.345 37.8611L19.9182 40.4244C19.7205 40.7777 19.3906 41.0381 19.001 41.1483C18.6115 41.2586 18.1941 41.2097 17.8405 41.0125L17.668 40.9183C17.3152 40.7202 17.0552 40.3903 16.945 40.0009C16.8348 39.6115 16.8834 39.1943 17.0802 38.8406L17.8013 37.5473L19.2202 35.0074L19.9413 33.7139C20.14 33.3639 20.4684 33.1061 20.8556 32.9961C21.2428 32.8861 21.6577 32.9327 22.0108 33.126L22.1913 33.2278C22.5425 33.4255 22.8013 33.754 22.9114 34.1418C23.0215 34.5295 22.974 34.945 22.7792 35.2978Z" fill="#0348A2"/>
<path d="M18.5381 34.6236L17.1194 37.1714C16.9199 37.5228 16.5901 37.7815 16.2013 37.8915C15.8124 38.0015 15.3959 37.954 15.0419 37.7593L14.8695 37.6574C14.6949 37.5601 14.5413 37.4295 14.4173 37.2728C14.2932 37.1162 14.2013 36.9366 14.1467 36.7444C14.0921 36.5522 14.0759 36.3512 14.099 36.1527C14.1222 35.9543 14.1842 35.7623 14.2815 35.5878L15.7005 33.0479C15.7965 32.871 15.9271 32.7152 16.0847 32.59C16.2423 32.4647 16.4235 32.3726 16.6176 32.319C16.8089 32.2643 17.0092 32.2479 17.207 32.2707C17.4047 32.2936 17.596 32.3552 17.7699 32.4522L17.9502 32.5541C18.3013 32.7518 18.5601 33.0802 18.6702 33.4678C18.7803 33.8554 18.7329 34.2708 18.5381 34.6236Z" fill="#0348A2"/>
<path d="M47.3939 30.7747L51 28.7993L45.5281 17.9425L42.0633 19.957L47.3939 30.7747Z" fill="#0348A2"/>
<path d="M34.7034 19.3022L34.7494 19.3216C37.3363 20.4112 39.9861 21.5082 41.8283 21.25L46.0849 29.9044L44.6931 31.3607C44.1283 31.7386 43.4875 31.988 42.8158 32.0914L29.9679 22.5987C29.8997 22.5484 29.8173 22.521 29.7326 22.5202H28.3135C27.7017 22.52 27.1015 22.6871 26.5778 23.0034C26.0541 23.3197 25.6269 23.7732 25.3424 24.3148L24.4488 26.0158C24.2446 26.4026 23.9198 26.7122 23.5237 26.8976C22.912 27.3984 21.9323 26.8762 21.5188 26.5525C21.3434 26.3031 21.2673 25.9973 21.3054 25.6949C21.4068 24.3505 21.6512 23.0208 22.0345 21.7283C22.3558 20.9991 25.2719 19.1255 27.7962 18.2476C27.8553 18.2462 27.9127 18.2271 27.9607 18.1926C28.6498 17.9411 29.3753 17.8035 30.1086 17.7852C31.1427 17.8084 32.8705 18.5333 34.7034 19.3022Z" fill="#0348A2"/>
</svg>
