<svg width="140" height="22" viewBox="0 0 140 22" fill="none" xmlns="http://www.w3.org/2000/svg">
<path d="M6.83083 16.4784C9.77493 16.4784 12.1617 14.0916 12.1617 11.1474C12.1617 8.20313 9.77493 5.81641 6.83083 5.81641C3.88672 5.81641 1.5 8.20313 1.5 11.1474C1.5 14.0916 3.88672 16.4784 6.83083 16.4784Z" stroke="#0075F2" stroke-width="3"/>
<ellipse opacity="0.306913" cx="4.09852" cy="4.0985" rx="4.09852" ry="4.0985" transform="matrix(4.37114e-08 1 1 -4.37129e-08 24.9462 7.04883)" fill="#0075F2"/>
<ellipse opacity="0.306913" cx="4.09852" cy="4.0985" rx="4.09852" ry="4.0985" transform="matrix(4.37114e-08 1 1 -4.37129e-08 44.4163 7.04883)" fill="#0075F2"/>
<path fill-rule="evenodd" clip-rule="evenodd" d="M76.1136 11.1472L63.8864 2.14497L63.8905 20.1465L76.1136 11.1472Z" fill="#0075F2"/>
<ellipse opacity="0.306913" cx="4.09852" cy="4.0985" rx="4.09852" ry="4.0985" transform="matrix(4.37114e-08 1 1 -4.37129e-08 87.3867 7.04883)" fill="#0075F2"/>
<ellipse opacity="0.306913" cx="4.09852" cy="4.0985" rx="4.09852" ry="4.0985" transform="matrix(4.37114e-08 1 1 -4.37129e-08 106.857 7.04883)" fill="#0075F2"/>
<path opacity="0.996843" d="M133.169 16.4784C136.113 16.4784 138.5 14.0916 138.5 11.1474C138.5 8.20313 136.113 5.81641 133.169 5.81641C130.225 5.81641 127.838 8.20313 127.838 11.1474C127.838 14.0916 130.225 16.4784 133.169 16.4784Z" stroke="#0075F2" stroke-width="3"/>
</svg>
