<svg width="127" height="127" viewBox="0 0 127 127" fill="none" xmlns="http://www.w3.org/2000/svg">
<path d="M59.8023 18.4795C59.8023 20.7486 61.6418 22.5881 63.911 22.5881C66.1802 22.5881 68.0197 20.7486 68.0197 18.4795C68.0197 16.2104 66.1802 14.3709 63.911 14.3709C61.6418 14.3709 59.8023 16.2104 59.8023 18.4795Z" stroke="white" stroke-width="1.78277"/>
<circle opacity="0.306913" cx="3" cy="3" r="3" transform="matrix(-1 0 0 1 66.911 30.7412)" fill="white"/>
<circle opacity="0.306913" cx="3" cy="3" r="3" transform="matrix(-1 0 0 1 66.911 44.9932)" fill="white"/>
<path fill-rule="evenodd" clip-rule="evenodd" d="M63.9099 68.1943L70.4993 59.2443L57.3227 59.2473L63.9099 68.1943Z" fill="white"/>
<circle opacity="0.306913" cx="3" cy="3" r="3" transform="matrix(-1 0 0 1 66.911 76.4463)" fill="white"/>
<circle opacity="0.306913" cx="3" cy="3" r="3" transform="matrix(-1 0 0 1 66.911 90.6982)" fill="white"/>
<path opacity="0.996843" d="M59.675 108.959C59.675 111.298 61.5715 113.195 63.911 113.195C66.2505 113.195 68.1471 111.298 68.1471 108.959C68.1471 106.62 66.2505 104.723 63.911 104.723C61.5715 104.723 59.675 106.62 59.675 108.959Z" stroke="white" stroke-width="1.52809"/>
</svg>
