<svg width="566" height="84" viewBox="0 0 566 84" fill="none" xmlns="http://www.w3.org/2000/svg">
<path d="M28.944 35.128C28.0907 35.128 27.2747 35 26.496 34.744C25.7173 34.4773 25.104 34.136 24.656 33.72L25.248 32.472C25.6747 32.8453 26.2187 33.1547 26.88 33.4C27.5413 33.6453 28.2293 33.768 28.944 33.768C29.5947 33.768 30.1227 33.6933 30.528 33.544C30.9333 33.3947 31.232 33.192 31.424 32.936C31.616 32.6693 31.712 32.3707 31.712 32.04C31.712 31.656 31.584 31.3467 31.328 31.112C31.0827 30.8773 30.7573 30.6907 30.352 30.552C29.9573 30.4027 29.52 30.2747 29.04 30.168C28.56 30.0613 28.0747 29.9387 27.584 29.8C27.104 29.6507 26.6613 29.464 26.256 29.24C25.8613 29.016 25.5413 28.7173 25.296 28.344C25.0507 27.96 24.928 27.4693 24.928 26.872C24.928 26.296 25.0773 25.768 25.376 25.288C25.6853 24.7973 26.1547 24.408 26.784 24.12C27.424 23.8213 28.2347 23.672 29.216 23.672C29.8667 23.672 30.512 23.7573 31.152 23.928C31.792 24.0987 32.3467 24.344 32.816 24.664L32.288 25.944C31.808 25.624 31.3013 25.3947 30.768 25.256C30.2347 25.1067 29.7173 25.032 29.216 25.032C28.5867 25.032 28.0693 25.112 27.664 25.272C27.2587 25.432 26.96 25.6453 26.768 25.912C26.5867 26.1787 26.496 26.4773 26.496 26.808C26.496 27.2027 26.6187 27.5173 26.864 27.752C27.12 27.9867 27.4453 28.1733 27.84 28.312C28.2453 28.4507 28.688 28.5787 29.168 28.696C29.648 28.8027 30.128 28.9253 30.608 29.064C31.0987 29.2027 31.5413 29.384 31.936 29.608C32.3413 29.832 32.6667 30.1307 32.912 30.504C33.1573 30.8773 33.28 31.3573 33.28 31.944C33.28 32.5093 33.1253 33.0373 32.816 33.528C32.5067 34.008 32.0267 34.3973 31.376 34.696C30.736 34.984 29.9253 35.128 28.944 35.128ZM39.1695 35.096C38.2628 35.096 37.4628 34.9093 36.7695 34.536C36.0868 34.1627 35.5535 33.6507 35.1695 33C34.7962 32.3493 34.6095 31.6027 34.6095 30.76C34.6095 29.9173 34.7908 29.1707 35.1535 28.52C35.5268 27.8693 36.0335 27.3627 36.6735 27C37.3242 26.6267 38.0548 26.44 38.8655 26.44C39.6868 26.44 40.4122 26.6213 41.0415 26.984C41.6708 27.3467 42.1615 27.8587 42.5135 28.52C42.8762 29.1707 43.0575 29.9333 43.0575 30.808C43.0575 30.872 43.0522 30.9467 43.0415 31.032C43.0415 31.1173 43.0362 31.1973 43.0255 31.272H35.8095V30.168H42.2255L41.6015 30.552C41.6122 30.008 41.5002 29.5227 41.2655 29.096C41.0308 28.6693 40.7055 28.3387 40.2895 28.104C39.8842 27.8587 39.4095 27.736 38.8655 27.736C38.3322 27.736 37.8575 27.8587 37.4415 28.104C37.0255 28.3387 36.7002 28.6747 36.4655 29.112C36.2308 29.5387 36.1135 30.0293 36.1135 30.584V30.84C36.1135 31.4053 36.2415 31.912 36.4975 32.36C36.7642 32.7973 37.1322 33.1387 37.6015 33.384C38.0708 33.6293 38.6095 33.752 39.2175 33.752C39.7188 33.752 40.1722 33.6667 40.5775 33.496C40.9935 33.3253 41.3562 33.0693 41.6655 32.728L42.5135 33.72C42.1295 34.168 41.6495 34.5093 41.0735 34.744C40.5082 34.9787 39.8735 35.096 39.1695 35.096ZM48.8864 35.096C48.0224 35.096 47.249 34.9093 46.5664 34.536C45.8944 34.1627 45.3664 33.6507 44.9824 33C44.5984 32.3493 44.4064 31.6027 44.4064 30.76C44.4064 29.9173 44.5984 29.1707 44.9824 28.52C45.3664 27.8693 45.8944 27.3627 46.5664 27C47.249 26.6267 48.0224 26.44 48.8864 26.44C49.6544 26.44 50.337 26.5947 50.9344 26.904C51.5424 27.2027 52.0117 27.6507 52.3424 28.248L51.1744 29C50.897 28.584 50.5557 28.28 50.1504 28.088C49.7557 27.8853 49.329 27.784 48.8704 27.784C48.3157 27.784 47.8197 27.9067 47.3824 28.152C46.945 28.3973 46.5984 28.744 46.3424 29.192C46.0864 29.6293 45.9584 30.152 45.9584 30.76C45.9584 31.368 46.0864 31.896 46.3424 32.344C46.5984 32.792 46.945 33.1387 47.3824 33.384C47.8197 33.6293 48.3157 33.752 48.8704 33.752C49.329 33.752 49.7557 33.656 50.1504 33.464C50.5557 33.2613 50.897 32.952 51.1744 32.536L52.3424 33.272C52.0117 33.8587 51.5424 34.312 50.9344 34.632C50.337 34.9413 49.6544 35.096 48.8864 35.096ZM57.899 35.096C57.1737 35.096 56.5337 34.9627 55.979 34.696C55.435 34.4293 55.0083 34.024 54.699 33.48C54.4003 32.9253 54.251 32.232 54.251 31.4V26.52H55.787V31.224C55.787 32.056 55.9843 32.68 56.379 33.096C56.7843 33.512 57.3497 33.72 58.075 33.72C58.6083 33.72 59.0723 33.6133 59.467 33.4C59.8617 33.176 60.1657 32.856 60.379 32.44C60.5923 32.0133 60.699 31.5013 60.699 30.904V26.52H62.235V35H60.779V32.712L61.019 33.32C60.7417 33.8853 60.3257 34.3227 59.771 34.632C59.2163 34.9413 58.5923 35.096 57.899 35.096ZM65.1591 35V26.52H66.6311V28.824L66.4871 28.248C66.7218 27.6613 67.1165 27.2133 67.6711 26.904C68.2258 26.5947 68.9085 26.44 69.7191 26.44V27.928C69.6551 27.9173 69.5911 27.912 69.5271 27.912C69.4738 27.912 69.4205 27.912 69.3671 27.912C68.5458 27.912 67.8951 28.1573 67.4151 28.648C66.9351 29.1387 66.6951 29.848 66.6951 30.776V35H65.1591ZM71.6123 35V26.52H73.1483V35H71.6123ZM72.3803 24.888C72.0816 24.888 71.8309 24.792 71.6283 24.6C71.4363 24.408 71.3403 24.1733 71.3403 23.896C71.3403 23.608 71.4363 23.368 71.6283 23.176C71.8309 22.984 72.0816 22.888 72.3803 22.888C72.6789 22.888 72.9243 22.984 73.1163 23.176C73.3189 23.3573 73.4203 23.5867 73.4203 23.864C73.4203 24.152 73.3243 24.3973 73.1323 24.6C72.9403 24.792 72.6896 24.888 72.3803 24.888ZM78.993 35.096C78.1397 35.096 77.4783 34.8667 77.009 34.408C76.5397 33.9493 76.305 33.2933 76.305 32.44V24.664H77.841V32.376C77.841 32.8347 77.953 33.1867 78.177 33.432C78.4117 33.6773 78.7423 33.8 79.169 33.8C79.649 33.8 80.049 33.6667 80.369 33.4L80.849 34.504C80.6143 34.7067 80.3317 34.856 80.001 34.952C79.681 35.048 79.345 35.096 78.993 35.096ZM74.865 27.784V26.52H80.273V27.784H74.865ZM82.9178 38.2C82.5124 38.2 82.1178 38.1307 81.7338 37.992C81.3498 37.864 81.0191 37.672 80.7417 37.416L81.3978 36.264C81.6111 36.4667 81.8458 36.6213 82.1018 36.728C82.3578 36.8347 82.6298 36.888 82.9178 36.888C83.2911 36.888 83.6004 36.792 83.8458 36.6C84.0911 36.408 84.3204 36.0667 84.5338 35.576L85.0618 34.408L85.2218 34.216L88.5498 26.52H90.0538L85.9418 35.848C85.6964 36.4453 85.4191 36.9147 85.1098 37.256C84.8111 37.5973 84.4804 37.8373 84.1178 37.976C83.7551 38.1253 83.3551 38.2 82.9178 38.2ZM84.9338 35.272L81.0617 26.52H82.6618L85.9578 34.072L84.9338 35.272ZM98.6961 35.096C97.8428 35.096 97.1815 34.8667 96.7121 34.408C96.2428 33.9493 96.0081 33.2933 96.0081 32.44V24.664H97.5441V32.376C97.5441 32.8347 97.6561 33.1867 97.8801 33.432C98.1148 33.6773 98.4455 33.8 98.8721 33.8C99.3521 33.8 99.7521 33.6667 100.072 33.4L100.552 34.504C100.317 34.7067 100.035 34.856 99.7041 34.952C99.3841 35.048 99.0481 35.096 98.6961 35.096ZM94.5681 27.784V26.52H99.9761V27.784H94.5681ZM105.76 35.096C104.907 35.096 104.149 34.9093 103.488 34.536C102.827 34.1627 102.304 33.6507 101.92 33C101.536 32.3387 101.344 31.592 101.344 30.76C101.344 29.9173 101.536 29.1707 101.92 28.52C102.304 27.8693 102.827 27.3627 103.488 27C104.149 26.6267 104.907 26.44 105.76 26.44C106.603 26.44 107.355 26.6267 108.016 27C108.688 27.3627 109.211 27.8693 109.584 28.52C109.968 29.16 110.16 29.9067 110.16 30.76C110.16 31.6027 109.968 32.3493 109.584 33C109.211 33.6507 108.688 34.1627 108.016 34.536C107.355 34.9093 106.603 35.096 105.76 35.096ZM105.76 33.752C106.304 33.752 106.789 33.6293 107.216 33.384C107.653 33.1387 107.995 32.792 108.24 32.344C108.485 31.8853 108.608 31.3573 108.608 30.76C108.608 30.152 108.485 29.6293 108.24 29.192C107.995 28.744 107.653 28.3973 107.216 28.152C106.789 27.9067 106.304 27.784 105.76 27.784C105.216 27.784 104.731 27.9067 104.304 28.152C103.877 28.3973 103.536 28.744 103.28 29.192C103.024 29.6293 102.896 30.152 102.896 30.76C102.896 31.3573 103.024 31.8853 103.28 32.344C103.536 32.792 103.877 33.1387 104.304 33.384C104.731 33.6293 105.216 33.752 105.76 33.752ZM115.916 35.096C115.063 35.096 114.305 34.9093 113.644 34.536C112.983 34.1627 112.46 33.6507 112.076 33C111.692 32.3387 111.5 31.592 111.5 30.76C111.5 29.9173 111.692 29.1707 112.076 28.52C112.46 27.8693 112.983 27.3627 113.644 27C114.305 26.6267 115.063 26.44 115.916 26.44C116.759 26.44 117.511 26.6267 118.172 27C118.844 27.3627 119.367 27.8693 119.74 28.52C120.124 29.16 120.316 29.9067 120.316 30.76C120.316 31.6027 120.124 32.3493 119.74 33C119.367 33.6507 118.844 34.1627 118.172 34.536C117.511 34.9093 116.759 35.096 115.916 35.096ZM115.916 33.752C116.46 33.752 116.945 33.6293 117.372 33.384C117.809 33.1387 118.151 32.792 118.396 32.344C118.641 31.8853 118.764 31.3573 118.764 30.76C118.764 30.152 118.641 29.6293 118.396 29.192C118.151 28.744 117.809 28.3973 117.372 28.152C116.945 27.9067 116.46 27.784 115.916 27.784C115.372 27.784 114.887 27.9067 114.46 28.152C114.033 28.3973 113.692 28.744 113.436 29.192C113.18 29.6293 113.052 30.152 113.052 30.76C113.052 31.3573 113.18 31.8853 113.436 32.344C113.692 32.792 114.033 33.1387 114.46 33.384C114.887 33.6293 115.372 33.752 115.916 33.752ZM122.44 35V23.128H123.976V35H122.44ZM134.118 35.096C133.265 35.096 132.603 34.8667 132.134 34.408C131.665 33.9493 131.43 33.2933 131.43 32.44V24.664H132.966V32.376C132.966 32.8347 133.078 33.1867 133.302 33.432C133.537 33.6773 133.867 33.8 134.294 33.8C134.774 33.8 135.174 33.6667 135.494 33.4L135.974 34.504C135.739 34.7067 135.457 34.856 135.126 34.952C134.806 35.048 134.47 35.096 134.118 35.096ZM129.99 27.784V26.52H135.398V27.784H129.99ZM141.182 35.096C140.328 35.096 139.571 34.9093 138.91 34.536C138.248 34.1627 137.726 33.6507 137.342 33C136.958 32.3387 136.766 31.592 136.766 30.76C136.766 29.9173 136.958 29.1707 137.342 28.52C137.726 27.8693 138.248 27.3627 138.91 27C139.571 26.6267 140.328 26.44 141.182 26.44C142.024 26.44 142.776 26.6267 143.438 27C144.11 27.3627 144.632 27.8693 145.006 28.52C145.39 29.16 145.582 29.9067 145.582 30.76C145.582 31.6027 145.39 32.3493 145.006 33C144.632 33.6507 144.11 34.1627 143.438 34.536C142.776 34.9093 142.024 35.096 141.182 35.096ZM141.182 33.752C141.726 33.752 142.211 33.6293 142.638 33.384C143.075 33.1387 143.416 32.792 143.662 32.344C143.907 31.8853 144.03 31.3573 144.03 30.76C144.03 30.152 143.907 29.6293 143.662 29.192C143.416 28.744 143.075 28.3973 142.638 28.152C142.211 27.9067 141.726 27.784 141.182 27.784C140.638 27.784 140.152 27.9067 139.726 28.152C139.299 28.3973 138.958 28.744 138.702 29.192C138.446 29.6293 138.318 30.152 138.318 30.76C138.318 31.3573 138.446 31.8853 138.702 32.344C138.958 32.792 139.299 33.1387 139.726 33.384C140.152 33.6293 140.638 33.752 141.182 33.752ZM154.435 35.096C153.731 35.096 153.059 35 152.419 34.808C151.79 34.616 151.294 34.3813 150.931 34.104L151.571 32.888C151.934 33.1333 152.382 33.3413 152.915 33.512C153.448 33.6827 153.992 33.768 154.547 33.768C155.262 33.768 155.774 33.6667 156.083 33.464C156.403 33.2613 156.563 32.9787 156.563 32.616C156.563 32.3493 156.467 32.1413 156.275 31.992C156.083 31.8427 155.827 31.7307 155.507 31.656C155.198 31.5813 154.851 31.5173 154.467 31.464C154.083 31.4 153.699 31.3253 153.315 31.24C152.931 31.144 152.579 31.016 152.259 30.856C151.939 30.6853 151.683 30.456 151.491 30.168C151.299 29.8693 151.203 29.4747 151.203 28.984C151.203 28.472 151.347 28.024 151.635 27.64C151.923 27.256 152.328 26.9627 152.851 26.76C153.384 26.5467 154.014 26.44 154.739 26.44C155.294 26.44 155.854 26.5093 156.419 26.648C156.995 26.776 157.464 26.9627 157.827 27.208L157.171 28.424C156.787 28.168 156.387 27.992 155.971 27.896C155.555 27.8 155.139 27.752 154.723 27.752C154.051 27.752 153.55 27.864 153.219 28.088C152.888 28.3013 152.723 28.5787 152.723 28.92C152.723 29.208 152.819 29.432 153.011 29.592C153.214 29.7413 153.47 29.8587 153.779 29.944C154.099 30.0293 154.451 30.104 154.835 30.168C155.219 30.2213 155.603 30.296 155.987 30.392C156.371 30.4773 156.718 30.6 157.027 30.76C157.347 30.92 157.603 31.144 157.795 31.432C157.998 31.72 158.099 32.104 158.099 32.584C158.099 33.096 157.95 33.5387 157.651 33.912C157.352 34.2853 156.931 34.5787 156.387 34.792C155.843 34.9947 155.192 35.096 154.435 35.096ZM162.931 35.096C162.077 35.096 161.416 34.8667 160.947 34.408C160.477 33.9493 160.243 33.2933 160.243 32.44V24.664H161.779V32.376C161.779 32.8347 161.891 33.1867 162.115 33.432C162.349 33.6773 162.68 33.8 163.107 33.8C163.587 33.8 163.987 33.6667 164.307 33.4L164.787 34.504C164.552 34.7067 164.269 34.856 163.939 34.952C163.619 35.048 163.283 35.096 162.931 35.096ZM158.803 27.784V26.52H164.211V27.784H158.803ZM169.994 35.096C169.141 35.096 168.384 34.9093 167.722 34.536C167.061 34.1627 166.538 33.6507 166.154 33C165.77 32.3387 165.578 31.592 165.578 30.76C165.578 29.9173 165.77 29.1707 166.154 28.52C166.538 27.8693 167.061 27.3627 167.722 27C168.384 26.6267 169.141 26.44 169.994 26.44C170.837 26.44 171.589 26.6267 172.25 27C172.922 27.3627 173.445 27.8693 173.818 28.52C174.202 29.16 174.394 29.9067 174.394 30.76C174.394 31.6027 174.202 32.3493 173.818 33C173.445 33.6507 172.922 34.1627 172.25 34.536C171.589 34.9093 170.837 35.096 169.994 35.096ZM169.994 33.752C170.538 33.752 171.024 33.6293 171.45 33.384C171.888 33.1387 172.229 32.792 172.474 32.344C172.72 31.8853 172.842 31.3573 172.842 30.76C172.842 30.152 172.72 29.6293 172.474 29.192C172.229 28.744 171.888 28.3973 171.45 28.152C171.024 27.9067 170.538 27.784 169.994 27.784C169.45 27.784 168.965 27.9067 168.538 28.152C168.112 28.3973 167.77 28.744 167.514 29.192C167.258 29.6293 167.13 30.152 167.13 30.76C167.13 31.3573 167.258 31.8853 167.514 32.344C167.77 32.792 168.112 33.1387 168.538 33.384C168.965 33.6293 169.45 33.752 169.994 33.752ZM176.519 35V26.52H177.991V28.824L177.847 28.248C178.081 27.6613 178.476 27.2133 179.031 26.904C179.585 26.5947 180.268 26.44 181.079 26.44V27.928C181.015 27.9173 180.951 27.912 180.887 27.912C180.833 27.912 180.78 27.912 180.727 27.912C179.905 27.912 179.255 28.1573 178.775 28.648C178.295 29.1387 178.055 29.848 178.055 30.776V35H176.519ZM186.67 35.096C185.763 35.096 184.963 34.9093 184.27 34.536C183.587 34.1627 183.054 33.6507 182.67 33C182.296 32.3493 182.11 31.6027 182.11 30.76C182.11 29.9173 182.291 29.1707 182.654 28.52C183.027 27.8693 183.534 27.3627 184.174 27C184.824 26.6267 185.555 26.44 186.366 26.44C187.187 26.44 187.912 26.6213 188.542 26.984C189.171 27.3467 189.662 27.8587 190.014 28.52C190.376 29.1707 190.558 29.9333 190.558 30.808C190.558 30.872 190.552 30.9467 190.542 31.032C190.542 31.1173 190.536 31.1973 190.526 31.272H183.31V30.168H189.726L189.102 30.552C189.112 30.008 189 29.5227 188.766 29.096C188.531 28.6693 188.206 28.3387 187.79 28.104C187.384 27.8587 186.91 27.736 186.366 27.736C185.832 27.736 185.358 27.8587 184.942 28.104C184.526 28.3387 184.2 28.6747 183.966 29.112C183.731 29.5387 183.614 30.0293 183.614 30.584V30.84C183.614 31.4053 183.742 31.912 183.998 32.36C184.264 32.7973 184.632 33.1387 185.102 33.384C185.571 33.6293 186.11 33.752 186.718 33.752C187.219 33.752 187.672 33.6667 188.078 33.496C188.494 33.3253 188.856 33.0693 189.166 32.728L190.014 33.72C189.63 34.168 189.15 34.5093 188.574 34.744C188.008 34.9787 187.374 35.096 186.67 35.096ZM25.824 64.2C25.4187 64.2 25.024 64.1307 24.64 63.992C24.256 63.864 23.9253 63.672 23.648 63.416L24.304 62.264C24.5173 62.4667 24.752 62.6213 25.008 62.728C25.264 62.8347 25.536 62.888 25.824 62.888C26.1973 62.888 26.5067 62.792 26.752 62.6C26.9973 62.408 27.2267 62.0667 27.44 61.576L27.968 60.408L28.128 60.216L31.456 52.52H32.96L28.848 61.848C28.6027 62.4453 28.3253 62.9147 28.016 63.256C27.7173 63.5973 27.3867 63.8373 27.024 63.976C26.6613 64.1253 26.2613 64.2 25.824 64.2ZM27.84 61.272L23.968 52.52H25.568L28.864 60.072L27.84 61.272ZM37.7911 61.096C36.9378 61.096 36.1805 60.9093 35.5191 60.536C34.8578 60.1627 34.3351 59.6507 33.9511 59C33.5671 58.3387 33.3751 57.592 33.3751 56.76C33.3751 55.9173 33.5671 55.1707 33.9511 54.52C34.3351 53.8693 34.8578 53.3627 35.5191 53C36.1805 52.6267 36.9378 52.44 37.7911 52.44C38.6338 52.44 39.3858 52.6267 40.0471 53C40.7191 53.3627 41.2418 53.8693 41.6151 54.52C41.9991 55.16 42.1911 55.9067 42.1911 56.76C42.1911 57.6027 41.9991 58.3493 41.6151 59C41.2418 59.6507 40.7191 60.1627 40.0471 60.536C39.3858 60.9093 38.6338 61.096 37.7911 61.096ZM37.7911 59.752C38.3351 59.752 38.8205 59.6293 39.2471 59.384C39.6845 59.1387 40.0258 58.792 40.2711 58.344C40.5165 57.8853 40.6391 57.3573 40.6391 56.76C40.6391 56.152 40.5165 55.6293 40.2711 55.192C40.0258 54.744 39.6845 54.3973 39.2471 54.152C38.8205 53.9067 38.3351 53.784 37.7911 53.784C37.2471 53.784 36.7618 53.9067 36.3351 54.152C35.9085 54.3973 35.5671 54.744 35.3111 55.192C35.0551 55.6293 34.9271 56.152 34.9271 56.76C34.9271 57.3573 35.0551 57.8853 35.3111 58.344C35.5671 58.792 35.9085 59.1387 36.3351 59.384C36.7618 59.6293 37.2471 59.752 37.7911 59.752ZM47.8834 61.096C47.158 61.096 46.518 60.9627 45.9634 60.696C45.4194 60.4293 44.9927 60.024 44.6834 59.48C44.3847 58.9253 44.2354 58.232 44.2354 57.4V52.52H45.7714V57.224C45.7714 58.056 45.9687 58.68 46.3634 59.096C46.7687 59.512 47.334 59.72 48.0594 59.72C48.5927 59.72 49.0567 59.6133 49.4514 59.4C49.846 59.176 50.15 58.856 50.3634 58.44C50.5767 58.0133 50.6834 57.5013 50.6834 56.904V52.52H52.2194V61H50.7634V58.712L51.0034 59.32C50.726 59.8853 50.31 60.3227 49.7554 60.632C49.2007 60.9413 48.5767 61.096 47.8834 61.096ZM55.1435 61V52.52H56.6155V54.824L56.4715 54.248C56.7062 53.6613 57.1008 53.2133 57.6555 52.904C58.2102 52.5947 58.8928 52.44 59.7035 52.44V53.928C59.6395 53.9173 59.5755 53.912 59.5115 53.912C59.4582 53.912 59.4048 53.912 59.3515 53.912C58.5302 53.912 57.8795 54.1573 57.3995 54.648C56.9195 55.1387 56.6795 55.848 56.6795 56.776V61H55.1435ZM69.6989 61.096C68.8349 61.096 68.0615 60.9093 67.3789 60.536C66.7069 60.1627 66.1789 59.6507 65.7949 59C65.4109 58.3493 65.2189 57.6027 65.2189 56.76C65.2189 55.9173 65.4109 55.1707 65.7949 54.52C66.1789 53.8693 66.7069 53.3627 67.3789 53C68.0615 52.6267 68.8349 52.44 69.6989 52.44C70.4669 52.44 71.1495 52.5947 71.7469 52.904C72.3549 53.2027 72.8242 53.6507 73.1549 54.248L71.9869 55C71.7095 54.584 71.3682 54.28 70.9629 54.088C70.5682 53.8853 70.1415 53.784 69.6829 53.784C69.1282 53.784 68.6322 53.9067 68.1949 54.152C67.7575 54.3973 67.4109 54.744 67.1549 55.192C66.8989 55.6293 66.7709 56.152 66.7709 56.76C66.7709 57.368 66.8989 57.896 67.1549 58.344C67.4109 58.792 67.7575 59.1387 68.1949 59.384C68.6322 59.6293 69.1282 59.752 69.6829 59.752C70.1415 59.752 70.5682 59.656 70.9629 59.464C71.3682 59.2613 71.7095 58.952 71.9869 58.536L73.1549 59.272C72.8242 59.8587 72.3549 60.312 71.7469 60.632C71.1495 60.9413 70.4669 61.096 69.6989 61.096ZM75.1435 61V52.52H76.6155V54.824L76.4715 54.248C76.7062 53.6613 77.1008 53.2133 77.6555 52.904C78.2102 52.5947 78.8928 52.44 79.7035 52.44V53.928C79.6395 53.9173 79.5755 53.912 79.5115 53.912C79.4582 53.912 79.4048 53.912 79.3515 53.912C78.5302 53.912 77.8795 54.1573 77.3995 54.648C76.9195 55.1387 76.6795 55.848 76.6795 56.776V61H75.1435ZM82.3084 64.2C81.903 64.2 81.5084 64.1307 81.1244 63.992C80.7404 63.864 80.4097 63.672 80.1324 63.416L80.7884 62.264C81.0017 62.4667 81.2364 62.6213 81.4924 62.728C81.7484 62.8347 82.0204 62.888 82.3084 62.888C82.6817 62.888 82.991 62.792 83.2364 62.6C83.4817 62.408 83.711 62.0667 83.9244 61.576L84.4524 60.408L84.6124 60.216L87.9404 52.52H89.4444L85.3324 61.848C85.087 62.4453 84.8097 62.9147 84.5004 63.256C84.2017 63.5973 83.871 63.8373 83.5084 63.976C83.1457 64.1253 82.7457 64.2 82.3084 64.2ZM84.3244 61.272L80.4524 52.52H82.0524L85.3484 60.072L84.3244 61.272ZM95.3739 61.096C94.6699 61.096 94.0245 60.936 93.4379 60.616C92.8619 60.2853 92.3979 59.8 92.0459 59.16C91.7045 58.52 91.5339 57.72 91.5339 56.76C91.5339 55.8 91.6992 55 92.0299 54.36C92.3712 53.72 92.8299 53.24 93.4059 52.92C93.9925 52.6 94.6485 52.44 95.3739 52.44C96.2059 52.44 96.9419 52.6213 97.5819 52.984C98.2219 53.3467 98.7285 53.8533 99.1019 54.504C99.4752 55.144 99.6619 55.896 99.6619 56.76C99.6619 57.624 99.4752 58.3813 99.1019 59.032C98.7285 59.6827 98.2219 60.1893 97.5819 60.552C96.9419 60.9147 96.2059 61.096 95.3739 61.096ZM90.8779 64.104V52.52H92.3499V54.808L92.2539 56.776L92.4139 58.744V64.104H90.8779ZM95.2459 59.752C95.7899 59.752 96.2752 59.6293 96.7019 59.384C97.1392 59.1387 97.4805 58.792 97.7259 58.344C97.9819 57.8853 98.1099 57.3573 98.1099 56.76C98.1099 56.152 97.9819 55.6293 97.7259 55.192C97.4805 54.744 97.1392 54.3973 96.7019 54.152C96.2752 53.9067 95.7899 53.784 95.2459 53.784C94.7125 53.784 94.2272 53.9067 93.7899 54.152C93.3632 54.3973 93.0219 54.744 92.7659 55.192C92.5205 55.6293 92.3979 56.152 92.3979 56.76C92.3979 57.3573 92.5205 57.8853 92.7659 58.344C93.0219 58.792 93.3632 59.1387 93.7899 59.384C94.2272 59.6293 94.7125 59.752 95.2459 59.752ZM104.696 61.096C103.843 61.096 103.181 60.8667 102.712 60.408C102.243 59.9493 102.008 59.2933 102.008 58.44V50.664H103.544V58.376C103.544 58.8347 103.656 59.1867 103.88 59.432C104.115 59.6773 104.445 59.8 104.872 59.8C105.352 59.8 105.752 59.6667 106.072 59.4L106.552 60.504C106.317 60.7067 106.035 60.856 105.704 60.952C105.384 61.048 105.048 61.096 104.696 61.096ZM100.568 53.784V52.52H105.976V53.784H100.568ZM111.76 61.096C110.907 61.096 110.149 60.9093 109.488 60.536C108.827 60.1627 108.304 59.6507 107.92 59C107.536 58.3387 107.344 57.592 107.344 56.76C107.344 55.9173 107.536 55.1707 107.92 54.52C108.304 53.8693 108.827 53.3627 109.488 53C110.149 52.6267 110.907 52.44 111.76 52.44C112.603 52.44 113.355 52.6267 114.016 53C114.688 53.3627 115.211 53.8693 115.584 54.52C115.968 55.16 116.16 55.9067 116.16 56.76C116.16 57.6027 115.968 58.3493 115.584 59C115.211 59.6507 114.688 60.1627 114.016 60.536C113.355 60.9093 112.603 61.096 111.76 61.096ZM111.76 59.752C112.304 59.752 112.789 59.6293 113.216 59.384C113.653 59.1387 113.995 58.792 114.24 58.344C114.485 57.8853 114.608 57.3573 114.608 56.76C114.608 56.152 114.485 55.6293 114.24 55.192C113.995 54.744 113.653 54.3973 113.216 54.152C112.789 53.9067 112.304 53.784 111.76 53.784C111.216 53.784 110.731 53.9067 110.304 54.152C109.877 54.3973 109.536 54.744 109.28 55.192C109.024 55.6293 108.896 56.152 108.896 56.76C108.896 57.3573 109.024 57.8853 109.28 58.344C109.536 58.792 109.877 59.1387 110.304 59.384C110.731 59.6293 111.216 59.752 111.76 59.752ZM125.013 61.096C124.309 61.096 123.637 61 122.997 60.808C122.368 60.616 121.872 60.3813 121.509 60.104L122.149 58.888C122.512 59.1333 122.96 59.3413 123.493 59.512C124.026 59.6827 124.57 59.768 125.125 59.768C125.84 59.768 126.352 59.6667 126.661 59.464C126.981 59.2613 127.141 58.9787 127.141 58.616C127.141 58.3493 127.045 58.1413 126.853 57.992C126.661 57.8427 126.405 57.7307 126.085 57.656C125.776 57.5813 125.429 57.5173 125.045 57.464C124.661 57.4 124.277 57.3253 123.893 57.24C123.509 57.144 123.157 57.016 122.837 56.856C122.517 56.6853 122.261 56.456 122.069 56.168C121.877 55.8693 121.781 55.4747 121.781 54.984C121.781 54.472 121.925 54.024 122.213 53.64C122.501 53.256 122.906 52.9627 123.429 52.76C123.962 52.5467 124.592 52.44 125.317 52.44C125.872 52.44 126.432 52.5093 126.997 52.648C127.573 52.776 128.042 52.9627 128.405 53.208L127.749 54.424C127.365 54.168 126.965 53.992 126.549 53.896C126.133 53.8 125.717 53.752 125.301 53.752C124.629 53.752 124.128 53.864 123.797 54.088C123.466 54.3013 123.301 54.5787 123.301 54.92C123.301 55.208 123.397 55.432 123.589 55.592C123.792 55.7413 124.048 55.8587 124.357 55.944C124.677 56.0293 125.029 56.104 125.413 56.168C125.797 56.2213 126.181 56.296 126.565 56.392C126.949 56.4773 127.296 56.6 127.605 56.76C127.925 56.92 128.181 57.144 128.373 57.432C128.576 57.72 128.677 58.104 128.677 58.584C128.677 59.096 128.528 59.5387 128.229 59.912C127.93 60.2853 127.509 60.5787 126.965 60.792C126.421 60.9947 125.77 61.096 125.013 61.096ZM135.861 61V59.208L135.781 58.872V55.816C135.781 55.1653 135.589 54.664 135.205 54.312C134.831 53.9493 134.266 53.768 133.509 53.768C133.007 53.768 132.517 53.8533 132.037 54.024C131.557 54.184 131.151 54.4027 130.821 54.68L130.181 53.528C130.618 53.176 131.141 52.9093 131.749 52.728C132.367 52.536 133.013 52.44 133.685 52.44C134.847 52.44 135.743 52.7227 136.373 53.288C137.002 53.8533 137.317 54.7173 137.317 55.88V61H135.861ZM133.077 61.096C132.447 61.096 131.893 60.9893 131.413 60.776C130.943 60.5627 130.581 60.2693 130.325 59.896C130.069 59.512 129.941 59.08 129.941 58.6C129.941 58.1413 130.047 57.7253 130.261 57.352C130.485 56.9787 130.842 56.68 131.333 56.456C131.834 56.232 132.506 56.12 133.349 56.12H136.037V57.224H133.413C132.645 57.224 132.127 57.352 131.861 57.608C131.594 57.864 131.461 58.1733 131.461 58.536C131.461 58.952 131.626 59.288 131.957 59.544C132.287 59.7893 132.746 59.912 133.333 59.912C133.909 59.912 134.41 59.784 134.837 59.528C135.274 59.272 135.589 58.8987 135.781 58.408L136.085 59.464C135.882 59.9653 135.525 60.3653 135.013 60.664C134.501 60.952 133.855 61.096 133.077 61.096ZM140.383 61V51.768C140.383 50.936 140.623 50.2747 141.103 49.784C141.594 49.2827 142.287 49.032 143.183 49.032C143.514 49.032 143.828 49.0747 144.127 49.16C144.436 49.2347 144.698 49.3573 144.911 49.528L144.447 50.696C144.287 50.568 144.106 50.472 143.903 50.408C143.7 50.3333 143.487 50.296 143.263 50.296C142.815 50.296 142.474 50.424 142.239 50.68C142.004 50.9253 141.887 51.2933 141.887 51.784V52.92L141.919 53.624V61H140.383ZM138.943 53.784V52.52H144.351V53.784H138.943ZM149.451 61.096C148.544 61.096 147.744 60.9093 147.051 60.536C146.368 60.1627 145.835 59.6507 145.451 59C145.077 58.3493 144.891 57.6027 144.891 56.76C144.891 55.9173 145.072 55.1707 145.435 54.52C145.808 53.8693 146.315 53.3627 146.955 53C147.605 52.6267 148.336 52.44 149.147 52.44C149.968 52.44 150.693 52.6213 151.323 52.984C151.952 53.3467 152.443 53.8587 152.795 54.52C153.157 55.1707 153.339 55.9333 153.339 56.808C153.339 56.872 153.333 56.9467 153.323 57.032C153.323 57.1173 153.317 57.1973 153.307 57.272H146.091V56.168H152.507L151.883 56.552C151.893 56.008 151.781 55.5227 151.547 55.096C151.312 54.6693 150.987 54.3387 150.571 54.104C150.165 53.8587 149.691 53.736 149.147 53.736C148.613 53.736 148.139 53.8587 147.723 54.104C147.307 54.3387 146.981 54.6747 146.747 55.112C146.512 55.5387 146.395 56.0293 146.395 56.584V56.84C146.395 57.4053 146.523 57.912 146.779 58.36C147.045 58.7973 147.413 59.1387 147.883 59.384C148.352 59.6293 148.891 59.752 149.499 59.752C150 59.752 150.453 59.6667 150.859 59.496C151.275 59.3253 151.637 59.0693 151.947 58.728L152.795 59.72C152.411 60.168 151.931 60.5093 151.355 60.744C150.789 60.9787 150.155 61.096 149.451 61.096ZM155.472 61V49.128H157.008V61H155.472ZM160.308 64.2C159.903 64.2 159.508 64.1307 159.124 63.992C158.74 63.864 158.41 63.672 158.132 63.416L158.788 62.264C159.002 62.4667 159.236 62.6213 159.492 62.728C159.748 62.8347 160.02 62.888 160.308 62.888C160.682 62.888 160.991 62.792 161.236 62.6C161.482 62.408 161.711 62.0667 161.924 61.576L162.452 60.408L162.612 60.216L165.94 52.52H167.444L163.332 61.848C163.087 62.4453 162.81 62.9147 162.5 63.256C162.202 63.5973 161.871 63.8373 161.508 63.976C161.146 64.1253 160.746 64.2 160.308 64.2ZM162.324 61.272L158.452 52.52H160.052L163.348 60.072L162.324 61.272Z" fill="black" fill-opacity="0.64"/>
<rect x="0.5" y="0.5" width="240.5" height="83" rx="7.5" stroke="#A8A8A8"/>
<path d="M266.5 41C265.948 41 265.5 41.4477 265.5 42C265.5 42.5523 265.948 43 266.5 43L266.5 41ZM300.207 42.7071C300.598 42.3166 300.598 41.6834 300.207 41.2929L293.843 34.9289C293.453 34.5384 292.819 34.5384 292.429 34.9289C292.038 35.3195 292.038 35.9526 292.429 36.3431L298.086 42L292.429 47.6569C292.038 48.0474 292.038 48.6805 292.429 49.0711C292.819 49.4616 293.453 49.4616 293.843 49.0711L300.207 42.7071ZM266.5 43L299.5 43L299.5 41L266.5 41L266.5 43Z" fill="black" fill-opacity="0.64"/>
<rect x="325" y="0.5" width="240.5" height="83" rx="7.5" fill="#89B2FF" fill-opacity="0.06"/>
<path d="M350.18 35V23.8H354.9C356.095 23.8 357.145 24.0347 358.052 24.504C358.969 24.9733 359.679 25.6293 360.18 26.472C360.692 27.3147 360.948 28.2907 360.948 29.4C360.948 30.5093 360.692 31.4853 360.18 32.328C359.679 33.1707 358.969 33.8267 358.052 34.296C357.145 34.7653 356.095 35 354.9 35H350.18ZM351.78 33.608H354.804C355.732 33.608 356.532 33.432 357.204 33.08C357.887 32.728 358.415 32.2373 358.788 31.608C359.161 30.968 359.348 30.232 359.348 29.4C359.348 28.5573 359.161 27.8213 358.788 27.192C358.415 26.5627 357.887 26.072 357.204 25.72C356.532 25.368 355.732 25.192 354.804 25.192H351.78V33.608ZM368.439 35V33.208L368.359 32.872V29.816C368.359 29.1653 368.167 28.664 367.783 28.312C367.409 27.9493 366.844 27.768 366.087 27.768C365.585 27.768 365.095 27.8533 364.615 28.024C364.135 28.184 363.729 28.4027 363.399 28.68L362.759 27.528C363.196 27.176 363.719 26.9093 364.327 26.728C364.945 26.536 365.591 26.44 366.263 26.44C367.425 26.44 368.321 26.7227 368.951 27.288C369.58 27.8533 369.895 28.7173 369.895 29.88V35H368.439ZM365.655 35.096C365.025 35.096 364.471 34.9893 363.991 34.776C363.521 34.5627 363.159 34.2693 362.903 33.896C362.647 33.512 362.519 33.08 362.519 32.6C362.519 32.1413 362.625 31.7253 362.839 31.352C363.063 30.9787 363.42 30.68 363.911 30.456C364.412 30.232 365.084 30.12 365.927 30.12H368.615V31.224H365.991C365.223 31.224 364.705 31.352 364.439 31.608C364.172 31.864 364.039 32.1733 364.039 32.536C364.039 32.952 364.204 33.288 364.535 33.544C364.865 33.7893 365.324 33.912 365.911 33.912C366.487 33.912 366.988 33.784 367.415 33.528C367.852 33.272 368.167 32.8987 368.359 32.408L368.663 33.464C368.46 33.9653 368.103 34.3653 367.591 34.664C367.079 34.952 366.433 35.096 365.655 35.096ZM372.737 35V26.52H374.273V35H372.737ZM373.505 24.888C373.207 24.888 372.956 24.792 372.753 24.6C372.561 24.408 372.465 24.1733 372.465 23.896C372.465 23.608 372.561 23.368 372.753 23.176C372.956 22.984 373.207 22.888 373.505 22.888C373.804 22.888 374.049 22.984 374.241 23.176C374.444 23.3573 374.545 23.5867 374.545 23.864C374.545 24.152 374.449 24.3973 374.257 24.6C374.065 24.792 373.815 24.888 373.505 24.888ZM377.206 35V23.128H378.742V35H377.206ZM382.043 38.2C381.637 38.2 381.243 38.1307 380.859 37.992C380.475 37.864 380.144 37.672 379.867 37.416L380.523 36.264C380.736 36.4667 380.971 36.6213 381.227 36.728C381.483 36.8347 381.755 36.888 382.043 36.888C382.416 36.888 382.725 36.792 382.971 36.6C383.216 36.408 383.445 36.0667 383.659 35.576L384.187 34.408L384.347 34.216L387.675 26.52H389.179L385.067 35.848C384.821 36.4453 384.544 36.9147 384.235 37.256C383.936 37.5973 383.605 37.8373 383.243 37.976C382.88 38.1253 382.48 38.2 382.043 38.2ZM384.059 35.272L380.187 26.52H381.787L385.083 34.072L384.059 35.272ZM399.405 35.096C398.701 35.096 398.056 34.936 397.469 34.616C396.893 34.2853 396.429 33.8 396.077 33.16C395.736 32.52 395.565 31.72 395.565 30.76C395.565 29.8 395.73 29 396.061 28.36C396.402 27.72 396.861 27.24 397.437 26.92C398.024 26.6 398.68 26.44 399.405 26.44C400.237 26.44 400.973 26.6213 401.613 26.984C402.253 27.3467 402.76 27.8533 403.133 28.504C403.506 29.144 403.693 29.896 403.693 30.76C403.693 31.624 403.506 32.3813 403.133 33.032C402.76 33.6827 402.253 34.1893 401.613 34.552C400.973 34.9147 400.237 35.096 399.405 35.096ZM394.909 38.104V26.52H396.381V28.808L396.285 30.776L396.445 32.744V38.104H394.909ZM399.277 33.752C399.821 33.752 400.306 33.6293 400.733 33.384C401.17 33.1387 401.512 32.792 401.757 32.344C402.013 31.8853 402.141 31.3573 402.141 30.76C402.141 30.152 402.013 29.6293 401.757 29.192C401.512 28.744 401.17 28.3973 400.733 28.152C400.306 27.9067 399.821 27.784 399.277 27.784C398.744 27.784 398.258 27.9067 397.821 28.152C397.394 28.3973 397.053 28.744 396.797 29.192C396.552 29.6293 396.429 30.152 396.429 30.76C396.429 31.3573 396.552 31.8853 396.797 32.344C397.053 32.792 397.394 33.1387 397.821 33.384C398.258 33.6293 398.744 33.752 399.277 33.752ZM405.815 35V23.128H407.351V35H405.815ZM415.548 35V33.208L415.468 32.872V29.816C415.468 29.1653 415.276 28.664 414.892 28.312C414.519 27.9493 413.953 27.768 413.196 27.768C412.695 27.768 412.204 27.8533 411.724 28.024C411.244 28.184 410.839 28.4027 410.508 28.68L409.868 27.528C410.305 27.176 410.828 26.9093 411.436 26.728C412.055 26.536 412.7 26.44 413.372 26.44C414.535 26.44 415.431 26.7227 416.06 27.288C416.689 27.8533 417.004 28.7173 417.004 29.88V35H415.548ZM412.764 35.096C412.135 35.096 411.58 34.9893 411.1 34.776C410.631 34.5627 410.268 34.2693 410.012 33.896C409.756 33.512 409.628 33.08 409.628 32.6C409.628 32.1413 409.735 31.7253 409.948 31.352C410.172 30.9787 410.529 30.68 411.02 30.456C411.521 30.232 412.193 30.12 413.036 30.12H415.724V31.224H413.1C412.332 31.224 411.815 31.352 411.548 31.608C411.281 31.864 411.148 32.1733 411.148 32.536C411.148 32.952 411.313 33.288 411.644 33.544C411.975 33.7893 412.433 33.912 413.02 33.912C413.596 33.912 414.097 33.784 414.524 33.528C414.961 33.272 415.276 32.8987 415.468 32.408L415.772 33.464C415.569 33.9653 415.212 34.3653 414.7 34.664C414.188 34.952 413.543 35.096 412.764 35.096ZM422.759 35.096C421.905 35.096 421.244 34.8667 420.775 34.408C420.305 33.9493 420.071 33.2933 420.071 32.44V24.664H421.607V32.376C421.607 32.8347 421.719 33.1867 421.943 33.432C422.177 33.6773 422.508 33.8 422.935 33.8C423.415 33.8 423.815 33.6667 424.135 33.4L424.615 34.504C424.38 34.7067 424.097 34.856 423.767 34.952C423.447 35.048 423.111 35.096 422.759 35.096ZM418.631 27.784V26.52H424.039V27.784H418.631ZM426.696 35V25.768C426.696 24.936 426.936 24.2747 427.416 23.784C427.906 23.2827 428.6 23.032 429.496 23.032C429.826 23.032 430.141 23.0747 430.44 23.16C430.749 23.2347 431.01 23.3573 431.224 23.528L430.76 24.696C430.6 24.568 430.418 24.472 430.216 24.408C430.013 24.3333 429.8 24.296 429.576 24.296C429.128 24.296 428.786 24.424 428.552 24.68C428.317 24.9253 428.2 25.2933 428.2 25.784V26.92L428.232 27.624V35H426.696ZM425.256 27.784V26.52H430.664V27.784H425.256ZM435.619 35.096C434.766 35.096 434.009 34.9093 433.347 34.536C432.686 34.1627 432.163 33.6507 431.779 33C431.395 32.3387 431.203 31.592 431.203 30.76C431.203 29.9173 431.395 29.1707 431.779 28.52C432.163 27.8693 432.686 27.3627 433.347 27C434.009 26.6267 434.766 26.44 435.619 26.44C436.462 26.44 437.214 26.6267 437.875 27C438.547 27.3627 439.07 27.8693 439.443 28.52C439.827 29.16 440.019 29.9067 440.019 30.76C440.019 31.6027 439.827 32.3493 439.443 33C439.07 33.6507 438.547 34.1627 437.875 34.536C437.214 34.9093 436.462 35.096 435.619 35.096ZM435.619 33.752C436.163 33.752 436.649 33.6293 437.075 33.384C437.513 33.1387 437.854 32.792 438.099 32.344C438.345 31.8853 438.467 31.3573 438.467 30.76C438.467 30.152 438.345 29.6293 438.099 29.192C437.854 28.744 437.513 28.3973 437.075 28.152C436.649 27.9067 436.163 27.784 435.619 27.784C435.075 27.784 434.59 27.9067 434.163 28.152C433.737 28.3973 433.395 28.744 433.139 29.192C432.883 29.6293 432.755 30.152 432.755 30.76C432.755 31.3573 432.883 31.8853 433.139 32.344C433.395 32.792 433.737 33.1387 434.163 33.384C434.59 33.6293 435.075 33.752 435.619 33.752ZM442.144 35V26.52H443.616V28.824L443.472 28.248C443.706 27.6613 444.101 27.2133 444.656 26.904C445.21 26.5947 445.893 26.44 446.704 26.44V27.928C446.64 27.9173 446.576 27.912 446.512 27.912C446.458 27.912 446.405 27.912 446.352 27.912C445.53 27.912 444.88 28.1573 444.4 28.648C443.92 29.1387 443.68 29.848 443.68 30.776V35H442.144ZM459.205 26.44C459.887 26.44 460.49 26.5733 461.013 26.84C461.535 27.1067 461.941 27.512 462.229 28.056C462.527 28.6 462.677 29.288 462.677 30.12V35H461.141V30.296C461.141 29.4747 460.949 28.856 460.565 28.44C460.181 28.024 459.642 27.816 458.949 27.816C458.437 27.816 457.989 27.9227 457.605 28.136C457.221 28.3493 456.922 28.664 456.709 29.08C456.506 29.496 456.405 30.0133 456.405 30.632V35H454.869V30.296C454.869 29.4747 454.677 28.856 454.293 28.44C453.919 28.024 453.381 27.816 452.677 27.816C452.175 27.816 451.733 27.9227 451.349 28.136C450.965 28.3493 450.666 28.664 450.453 29.08C450.239 29.496 450.133 30.0133 450.133 30.632V35H448.597V26.52H450.069V28.776L449.829 28.2C450.095 27.6453 450.506 27.2133 451.061 26.904C451.615 26.5947 452.261 26.44 452.997 26.44C453.807 26.44 454.506 26.6427 455.093 27.048C455.679 27.4427 456.063 28.0453 456.245 28.856L455.621 28.6C455.877 27.9493 456.325 27.4267 456.965 27.032C457.605 26.6373 458.351 26.44 459.205 26.44ZM470.024 35V25.768C470.024 24.936 470.264 24.2747 470.744 23.784C471.234 23.2827 471.928 23.032 472.824 23.032C473.154 23.032 473.469 23.0747 473.768 23.16C474.077 23.2347 474.338 23.3573 474.552 23.528L474.088 24.696C473.928 24.568 473.746 24.472 473.544 24.408C473.341 24.3333 473.128 24.296 472.904 24.296C472.456 24.296 472.114 24.424 471.88 24.68C471.645 24.9253 471.528 25.2933 471.528 25.784V26.92L471.56 27.624V35H470.024ZM468.584 27.784V26.52H473.992V27.784H468.584ZM478.947 35.096C478.094 35.096 477.337 34.9093 476.675 34.536C476.014 34.1627 475.491 33.6507 475.107 33C474.723 32.3387 474.531 31.592 474.531 30.76C474.531 29.9173 474.723 29.1707 475.107 28.52C475.491 27.8693 476.014 27.3627 476.675 27C477.337 26.6267 478.094 26.44 478.947 26.44C479.79 26.44 480.542 26.6267 481.203 27C481.875 27.3627 482.398 27.8693 482.771 28.52C483.155 29.16 483.347 29.9067 483.347 30.76C483.347 31.6027 483.155 32.3493 482.771 33C482.398 33.6507 481.875 34.1627 481.203 34.536C480.542 34.9093 479.79 35.096 478.947 35.096ZM478.947 33.752C479.491 33.752 479.977 33.6293 480.403 33.384C480.841 33.1387 481.182 32.792 481.427 32.344C481.673 31.8853 481.795 31.3573 481.795 30.76C481.795 30.152 481.673 29.6293 481.427 29.192C481.182 28.744 480.841 28.3973 480.403 28.152C479.977 27.9067 479.491 27.784 478.947 27.784C478.403 27.784 477.918 27.9067 477.491 28.152C477.065 28.3973 476.723 28.744 476.467 29.192C476.211 29.6293 476.083 30.152 476.083 30.76C476.083 31.3573 476.211 31.8853 476.467 32.344C476.723 32.792 477.065 33.1387 477.491 33.384C477.918 33.6293 478.403 33.752 478.947 33.752ZM485.472 35V26.52H486.944V28.824L486.8 28.248C487.034 27.6613 487.429 27.2133 487.984 26.904C488.538 26.5947 489.221 26.44 490.032 26.44V27.928C489.968 27.9173 489.904 27.912 489.84 27.912C489.786 27.912 489.733 27.912 489.68 27.912C488.858 27.912 488.208 28.1573 487.728 28.648C487.248 29.1387 487.008 29.848 487.008 30.776V35H485.472ZM354.452 61.096C353.727 61.096 353.071 60.936 352.484 60.616C351.908 60.2853 351.449 59.8 351.108 59.16C350.777 58.52 350.612 57.72 350.612 56.76C350.612 55.8 350.783 55 351.124 54.36C351.476 53.72 351.94 53.24 352.516 52.92C353.103 52.6 353.748 52.44 354.452 52.44C355.284 52.44 356.02 52.6213 356.66 52.984C357.3 53.3467 357.807 53.8533 358.18 54.504C358.553 55.144 358.74 55.896 358.74 56.76C358.74 57.624 358.553 58.3813 358.18 59.032C357.807 59.6827 357.3 60.1893 356.66 60.552C356.02 60.9147 355.284 61.096 354.452 61.096ZM349.956 61V49.128H351.492V54.776L351.332 56.744L351.428 58.712V61H349.956ZM354.324 59.752C354.868 59.752 355.353 59.6293 355.78 59.384C356.217 59.1387 356.559 58.792 356.804 58.344C357.06 57.8853 357.188 57.3573 357.188 56.76C357.188 56.152 357.06 55.6293 356.804 55.192C356.559 54.744 356.217 54.3973 355.78 54.152C355.353 53.9067 354.868 53.784 354.324 53.784C353.791 53.784 353.305 53.9067 352.868 54.152C352.441 54.3973 352.1 54.744 351.844 55.192C351.599 55.6293 351.476 56.152 351.476 56.76C351.476 57.3573 351.599 57.8853 351.844 58.344C352.1 58.792 352.441 59.1387 352.868 59.384C353.305 59.6293 353.791 59.752 354.324 59.752ZM364.43 61.096C363.705 61.096 363.065 60.9627 362.51 60.696C361.966 60.4293 361.54 60.024 361.23 59.48C360.932 58.9253 360.782 58.232 360.782 57.4V52.52H362.318V57.224C362.318 58.056 362.516 58.68 362.91 59.096C363.316 59.512 363.881 59.72 364.606 59.72C365.14 59.72 365.604 59.6133 365.998 59.4C366.393 59.176 366.697 58.856 366.91 58.44C367.124 58.0133 367.23 57.5013 367.23 56.904V52.52H368.766V61H367.31V58.712L367.55 59.32C367.273 59.8853 366.857 60.3227 366.302 60.632C365.748 60.9413 365.124 61.096 364.43 61.096ZM374.122 61.096C373.418 61.096 372.746 61 372.106 60.808C371.477 60.616 370.981 60.3813 370.618 60.104L371.258 58.888C371.621 59.1333 372.069 59.3413 372.602 59.512C373.136 59.6827 373.68 59.768 374.234 59.768C374.949 59.768 375.461 59.6667 375.77 59.464C376.09 59.2613 376.25 58.9787 376.25 58.616C376.25 58.3493 376.154 58.1413 375.962 57.992C375.77 57.8427 375.514 57.7307 375.194 57.656C374.885 57.5813 374.538 57.5173 374.154 57.464C373.77 57.4 373.386 57.3253 373.002 57.24C372.618 57.144 372.266 57.016 371.946 56.856C371.626 56.6853 371.37 56.456 371.178 56.168C370.986 55.8693 370.89 55.4747 370.89 54.984C370.89 54.472 371.034 54.024 371.322 53.64C371.61 53.256 372.016 52.9627 372.538 52.76C373.072 52.5467 373.701 52.44 374.426 52.44C374.981 52.44 375.541 52.5093 376.106 52.648C376.682 52.776 377.152 52.9627 377.514 53.208L376.858 54.424C376.474 54.168 376.074 53.992 375.658 53.896C375.242 53.8 374.826 53.752 374.41 53.752C373.738 53.752 373.237 53.864 372.906 54.088C372.576 54.3013 372.41 54.5787 372.41 54.92C372.41 55.208 372.506 55.432 372.698 55.592C372.901 55.7413 373.157 55.8587 373.466 55.944C373.786 56.0293 374.138 56.104 374.522 56.168C374.906 56.2213 375.29 56.296 375.674 56.392C376.058 56.4773 376.405 56.6 376.714 56.76C377.034 56.92 377.29 57.144 377.482 57.432C377.685 57.72 377.786 58.104 377.786 58.584C377.786 59.096 377.637 59.5387 377.338 59.912C377.04 60.2853 376.618 60.5787 376.074 60.792C375.53 60.9947 374.88 61.096 374.122 61.096ZM379.706 61V52.52H381.242V61H379.706ZM380.474 50.888C380.175 50.888 379.925 50.792 379.722 50.6C379.53 50.408 379.434 50.1733 379.434 49.896C379.434 49.608 379.53 49.368 379.722 49.176C379.925 48.984 380.175 48.888 380.474 48.888C380.773 48.888 381.018 48.984 381.21 49.176C381.413 49.3573 381.514 49.5867 381.514 49.864C381.514 50.152 381.418 50.3973 381.226 50.6C381.034 50.792 380.783 50.888 380.474 50.888ZM388.703 52.44C389.396 52.44 390.004 52.5733 390.527 52.84C391.06 53.1067 391.476 53.512 391.775 54.056C392.073 54.6 392.223 55.288 392.223 56.12V61H390.687V56.296C390.687 55.4747 390.484 54.856 390.079 54.44C389.684 54.024 389.124 53.816 388.399 53.816C387.855 53.816 387.38 53.9227 386.975 54.136C386.569 54.3493 386.255 54.664 386.031 55.08C385.817 55.496 385.711 56.0133 385.711 56.632V61H384.175V52.52H385.647V54.808L385.407 54.2C385.684 53.6453 386.111 53.2133 386.687 52.904C387.263 52.5947 387.935 52.44 388.703 52.44ZM398.841 61.096C397.935 61.096 397.135 60.9093 396.441 60.536C395.759 60.1627 395.225 59.6507 394.841 59C394.468 58.3493 394.281 57.6027 394.281 56.76C394.281 55.9173 394.463 55.1707 394.825 54.52C395.199 53.8693 395.705 53.3627 396.345 53C396.996 52.6267 397.727 52.44 398.537 52.44C399.359 52.44 400.084 52.6213 400.713 52.984C401.343 53.3467 401.833 53.8587 402.185 54.52C402.548 55.1707 402.729 55.9333 402.729 56.808C402.729 56.872 402.724 56.9467 402.713 57.032C402.713 57.1173 402.708 57.1973 402.697 57.272H395.481V56.168H401.897L401.273 56.552C401.284 56.008 401.172 55.5227 400.937 55.096C400.703 54.6693 400.377 54.3387 399.961 54.104C399.556 53.8587 399.081 53.736 398.537 53.736C398.004 53.736 397.529 53.8587 397.113 54.104C396.697 54.3387 396.372 54.6747 396.137 55.112C395.903 55.5387 395.785 56.0293 395.785 56.584V56.84C395.785 57.4053 395.913 57.912 396.169 58.36C396.436 58.7973 396.804 59.1387 397.273 59.384C397.743 59.6293 398.281 59.752 398.889 59.752C399.391 59.752 399.844 59.6667 400.249 59.496C400.665 59.3253 401.028 59.0693 401.337 58.728L402.185 59.72C401.801 60.168 401.321 60.5093 400.745 60.744C400.18 60.9787 399.545 61.096 398.841 61.096ZM407.294 61.096C406.59 61.096 405.918 61 405.278 60.808C404.649 60.616 404.153 60.3813 403.79 60.104L404.43 58.888C404.793 59.1333 405.241 59.3413 405.774 59.512C406.308 59.6827 406.852 59.768 407.406 59.768C408.121 59.768 408.633 59.6667 408.942 59.464C409.262 59.2613 409.422 58.9787 409.422 58.616C409.422 58.3493 409.326 58.1413 409.134 57.992C408.942 57.8427 408.686 57.7307 408.366 57.656C408.057 57.5813 407.71 57.5173 407.326 57.464C406.942 57.4 406.558 57.3253 406.174 57.24C405.79 57.144 405.438 57.016 405.118 56.856C404.798 56.6853 404.542 56.456 404.35 56.168C404.158 55.8693 404.062 55.4747 404.062 54.984C404.062 54.472 404.206 54.024 404.494 53.64C404.782 53.256 405.188 52.9627 405.71 52.76C406.244 52.5467 406.873 52.44 407.598 52.44C408.153 52.44 408.713 52.5093 409.278 52.648C409.854 52.776 410.324 52.9627 410.686 53.208L410.03 54.424C409.646 54.168 409.246 53.992 408.83 53.896C408.414 53.8 407.998 53.752 407.582 53.752C406.91 53.752 406.409 53.864 406.078 54.088C405.748 54.3013 405.582 54.5787 405.582 54.92C405.582 55.208 405.678 55.432 405.87 55.592C406.073 55.7413 406.329 55.8587 406.638 55.944C406.958 56.0293 407.31 56.104 407.694 56.168C408.078 56.2213 408.462 56.296 408.846 56.392C409.23 56.4773 409.577 56.6 409.886 56.76C410.206 56.92 410.462 57.144 410.654 57.432C410.857 57.72 410.958 58.104 410.958 58.584C410.958 59.096 410.809 59.5387 410.51 59.912C410.212 60.2853 409.79 60.5787 409.246 60.792C408.702 60.9947 408.052 61.096 407.294 61.096ZM415.31 61.096C414.606 61.096 413.934 61 413.294 60.808C412.665 60.616 412.169 60.3813 411.806 60.104L412.446 58.888C412.809 59.1333 413.257 59.3413 413.79 59.512C414.323 59.6827 414.867 59.768 415.422 59.768C416.137 59.768 416.649 59.6667 416.958 59.464C417.278 59.2613 417.438 58.9787 417.438 58.616C417.438 58.3493 417.342 58.1413 417.15 57.992C416.958 57.8427 416.702 57.7307 416.382 57.656C416.073 57.5813 415.726 57.5173 415.342 57.464C414.958 57.4 414.574 57.3253 414.19 57.24C413.806 57.144 413.454 57.016 413.134 56.856C412.814 56.6853 412.558 56.456 412.366 56.168C412.174 55.8693 412.078 55.4747 412.078 54.984C412.078 54.472 412.222 54.024 412.51 53.64C412.798 53.256 413.203 52.9627 413.726 52.76C414.259 52.5467 414.889 52.44 415.614 52.44C416.169 52.44 416.729 52.5093 417.294 52.648C417.87 52.776 418.339 52.9627 418.702 53.208L418.046 54.424C417.662 54.168 417.262 53.992 416.846 53.896C416.43 53.8 416.014 53.752 415.598 53.752C414.926 53.752 414.425 53.864 414.094 54.088C413.763 54.3013 413.598 54.5787 413.598 54.92C413.598 55.208 413.694 55.432 413.886 55.592C414.089 55.7413 414.345 55.8587 414.654 55.944C414.974 56.0293 415.326 56.104 415.71 56.168C416.094 56.2213 416.478 56.296 416.862 56.392C417.246 56.4773 417.593 56.6 417.902 56.76C418.222 56.92 418.478 57.144 418.67 57.432C418.873 57.72 418.974 58.104 418.974 58.584C418.974 59.096 418.825 59.5387 418.526 59.912C418.227 60.2853 417.806 60.5787 417.262 60.792C416.718 60.9947 416.067 61.096 415.31 61.096ZM428.822 61.096C427.969 61.096 427.212 60.9093 426.55 60.536C425.889 60.1627 425.366 59.6507 424.982 59C424.598 58.3387 424.406 57.592 424.406 56.76C424.406 55.9173 424.598 55.1707 424.982 54.52C425.366 53.8693 425.889 53.3627 426.55 53C427.212 52.6267 427.969 52.44 428.822 52.44C429.665 52.44 430.417 52.6267 431.078 53C431.75 53.3627 432.273 53.8693 432.646 54.52C433.03 55.16 433.222 55.9067 433.222 56.76C433.222 57.6027 433.03 58.3493 432.646 59C432.273 59.6507 431.75 60.1627 431.078 60.536C430.417 60.9093 429.665 61.096 428.822 61.096ZM428.822 59.752C429.366 59.752 429.852 59.6293 430.278 59.384C430.716 59.1387 431.057 58.792 431.302 58.344C431.548 57.8853 431.67 57.3573 431.67 56.76C431.67 56.152 431.548 55.6293 431.302 55.192C431.057 54.744 430.716 54.3973 430.278 54.152C429.852 53.9067 429.366 53.784 428.822 53.784C428.278 53.784 427.793 53.9067 427.366 54.152C426.94 54.3973 426.598 54.744 426.342 55.192C426.086 55.6293 425.958 56.152 425.958 56.76C425.958 57.3573 426.086 57.8853 426.342 58.344C426.598 58.792 426.94 59.1387 427.366 59.384C427.793 59.6293 428.278 59.752 428.822 59.752ZM439.843 61.096C439.139 61.096 438.493 60.936 437.907 60.616C437.331 60.2853 436.867 59.8 436.515 59.16C436.173 58.52 436.003 57.72 436.003 56.76C436.003 55.8 436.168 55 436.499 54.36C436.84 53.72 437.299 53.24 437.875 52.92C438.461 52.6 439.117 52.44 439.843 52.44C440.675 52.44 441.411 52.6213 442.051 52.984C442.691 53.3467 443.197 53.8533 443.571 54.504C443.944 55.144 444.131 55.896 444.131 56.76C444.131 57.624 443.944 58.3813 443.571 59.032C443.197 59.6827 442.691 60.1893 442.051 60.552C441.411 60.9147 440.675 61.096 439.843 61.096ZM435.347 64.104V52.52H436.819V54.808L436.723 56.776L436.883 58.744V64.104H435.347ZM439.715 59.752C440.259 59.752 440.744 59.6293 441.171 59.384C441.608 59.1387 441.949 58.792 442.195 58.344C442.451 57.8853 442.579 57.3573 442.579 56.76C442.579 56.152 442.451 55.6293 442.195 55.192C441.949 54.744 441.608 54.3973 441.171 54.152C440.744 53.9067 440.259 53.784 439.715 53.784C439.181 53.784 438.696 53.9067 438.259 54.152C437.832 54.3973 437.491 54.744 437.235 55.192C436.989 55.6293 436.867 56.152 436.867 56.76C436.867 57.3573 436.989 57.8853 437.235 58.344C437.491 58.792 437.832 59.1387 438.259 59.384C438.696 59.6293 439.181 59.752 439.715 59.752ZM450.029 61.096C449.122 61.096 448.322 60.9093 447.629 60.536C446.946 60.1627 446.413 59.6507 446.029 59C445.656 58.3493 445.469 57.6027 445.469 56.76C445.469 55.9173 445.65 55.1707 446.013 54.52C446.386 53.8693 446.893 53.3627 447.533 53C448.184 52.6267 448.914 52.44 449.725 52.44C450.546 52.44 451.272 52.6213 451.901 52.984C452.53 53.3467 453.021 53.8587 453.373 54.52C453.736 55.1707 453.917 55.9333 453.917 56.808C453.917 56.872 453.912 56.9467 453.901 57.032C453.901 57.1173 453.896 57.1973 453.885 57.272H446.669V56.168H453.085L452.461 56.552C452.472 56.008 452.36 55.5227 452.125 55.096C451.89 54.6693 451.565 54.3387 451.149 54.104C450.744 53.8587 450.269 53.736 449.725 53.736C449.192 53.736 448.717 53.8587 448.301 54.104C447.885 54.3387 447.56 54.6747 447.325 55.112C447.09 55.5387 446.973 56.0293 446.973 56.584V56.84C446.973 57.4053 447.101 57.912 447.357 58.36C447.624 58.7973 447.992 59.1387 448.461 59.384C448.93 59.6293 449.469 59.752 450.077 59.752C450.578 59.752 451.032 59.6667 451.437 59.496C451.853 59.3253 452.216 59.0693 452.525 58.728L453.373 59.72C452.989 60.168 452.509 60.5093 451.933 60.744C451.368 60.9787 450.733 61.096 450.029 61.096ZM456.05 61V52.52H457.522V54.824L457.378 54.248C457.612 53.6613 458.007 53.2133 458.562 52.904C459.116 52.5947 459.799 52.44 460.61 52.44V53.928C460.546 53.9173 460.482 53.912 460.418 53.912C460.364 53.912 460.311 53.912 460.258 53.912C459.436 53.912 458.786 54.1573 458.306 54.648C457.826 55.1387 457.586 55.848 457.586 56.776V61H456.05ZM467.142 61V59.208L467.062 58.872V55.816C467.062 55.1653 466.87 54.664 466.486 54.312C466.113 53.9493 465.547 53.768 464.79 53.768C464.289 53.768 463.798 53.8533 463.318 54.024C462.838 54.184 462.433 54.4027 462.102 54.68L461.462 53.528C461.899 53.176 462.422 52.9093 463.03 52.728C463.649 52.536 464.294 52.44 464.966 52.44C466.129 52.44 467.025 52.7227 467.654 53.288C468.283 53.8533 468.598 54.7173 468.598 55.88V61H467.142ZM464.358 61.096C463.729 61.096 463.174 60.9893 462.694 60.776C462.225 60.5627 461.862 60.2693 461.606 59.896C461.35 59.512 461.222 59.08 461.222 58.6C461.222 58.1413 461.329 57.7253 461.542 57.352C461.766 56.9787 462.123 56.68 462.614 56.456C463.115 56.232 463.787 56.12 464.63 56.12H467.318V57.224H464.694C463.926 57.224 463.409 57.352 463.142 57.608C462.875 57.864 462.742 58.1733 462.742 58.536C462.742 58.952 462.907 59.288 463.238 59.544C463.569 59.7893 464.027 59.912 464.614 59.912C465.19 59.912 465.691 59.784 466.118 59.528C466.555 59.272 466.87 58.8987 467.062 58.408L467.366 59.464C467.163 59.9653 466.806 60.3653 466.294 60.664C465.782 60.952 465.137 61.096 464.358 61.096ZM474.352 61.096C473.499 61.096 472.838 60.8667 472.368 60.408C471.899 59.9493 471.664 59.2933 471.664 58.44V50.664H473.2V58.376C473.2 58.8347 473.312 59.1867 473.536 59.432C473.771 59.6773 474.102 59.8 474.528 59.8C475.008 59.8 475.408 59.6667 475.728 59.4L476.208 60.504C475.974 60.7067 475.691 60.856 475.36 60.952C475.04 61.048 474.704 61.096 474.352 61.096ZM470.224 53.784V52.52H475.632V53.784H470.224ZM478.065 61V52.52H479.601V61H478.065ZM478.833 50.888C478.535 50.888 478.284 50.792 478.081 50.6C477.889 50.408 477.793 50.1733 477.793 49.896C477.793 49.608 477.889 49.368 478.081 49.176C478.284 48.984 478.535 48.888 478.833 48.888C479.132 48.888 479.377 48.984 479.569 49.176C479.772 49.3573 479.873 49.5867 479.873 49.864C479.873 50.152 479.777 50.3973 479.585 50.6C479.393 50.792 479.143 50.888 478.833 50.888ZM486.166 61.096C485.313 61.096 484.555 60.9093 483.894 60.536C483.233 60.1627 482.71 59.6507 482.326 59C481.942 58.3387 481.75 57.592 481.75 56.76C481.75 55.9173 481.942 55.1707 482.326 54.52C482.71 53.8693 483.233 53.3627 483.894 53C484.555 52.6267 485.313 52.44 486.166 52.44C487.009 52.44 487.761 52.6267 488.422 53C489.094 53.3627 489.617 53.8693 489.99 54.52C490.374 55.16 490.566 55.9067 490.566 56.76C490.566 57.6027 490.374 58.3493 489.99 59C489.617 59.6507 489.094 60.1627 488.422 60.536C487.761 60.9093 487.009 61.096 486.166 61.096ZM486.166 59.752C486.71 59.752 487.195 59.6293 487.622 59.384C488.059 59.1387 488.401 58.792 488.646 58.344C488.891 57.8853 489.014 57.3573 489.014 56.76C489.014 56.152 488.891 55.6293 488.646 55.192C488.401 54.744 488.059 54.3973 487.622 54.152C487.195 53.9067 486.71 53.784 486.166 53.784C485.622 53.784 485.137 53.9067 484.71 54.152C484.283 54.3973 483.942 54.744 483.686 55.192C483.43 55.6293 483.302 56.152 483.302 56.76C483.302 57.3573 483.43 57.8853 483.686 58.344C483.942 58.792 484.283 59.1387 484.71 59.384C485.137 59.6293 485.622 59.752 486.166 59.752ZM497.218 52.44C497.912 52.44 498.52 52.5733 499.042 52.84C499.576 53.1067 499.992 53.512 500.29 54.056C500.589 54.6 500.738 55.288 500.738 56.12V61H499.202V56.296C499.202 55.4747 499 54.856 498.594 54.44C498.2 54.024 497.64 53.816 496.914 53.816C496.37 53.816 495.896 53.9227 495.49 54.136C495.085 54.3493 494.77 54.664 494.546 55.08C494.333 55.496 494.226 56.0133 494.226 56.632V61H492.69V52.52H494.162V54.808L493.922 54.2C494.2 53.6453 494.626 53.2133 495.202 52.904C495.778 52.5947 496.45 52.44 497.218 52.44ZM506.013 61.096C505.309 61.096 504.637 61 503.997 60.808C503.368 60.616 502.872 60.3813 502.509 60.104L503.149 58.888C503.512 59.1333 503.96 59.3413 504.493 59.512C505.026 59.6827 505.57 59.768 506.125 59.768C506.84 59.768 507.352 59.6667 507.661 59.464C507.981 59.2613 508.141 58.9787 508.141 58.616C508.141 58.3493 508.045 58.1413 507.853 57.992C507.661 57.8427 507.405 57.7307 507.085 57.656C506.776 57.5813 506.429 57.5173 506.045 57.464C505.661 57.4 505.277 57.3253 504.893 57.24C504.509 57.144 504.157 57.016 503.837 56.856C503.517 56.6853 503.261 56.456 503.069 56.168C502.877 55.8693 502.781 55.4747 502.781 54.984C502.781 54.472 502.925 54.024 503.213 53.64C503.501 53.256 503.906 52.9627 504.429 52.76C504.962 52.5467 505.592 52.44 506.317 52.44C506.872 52.44 507.432 52.5093 507.997 52.648C508.573 52.776 509.042 52.9627 509.405 53.208L508.749 54.424C508.365 54.168 507.965 53.992 507.549 53.896C507.133 53.8 506.717 53.752 506.301 53.752C505.629 53.752 505.128 53.864 504.797 54.088C504.466 54.3013 504.301 54.5787 504.301 54.92C504.301 55.208 504.397 55.432 504.589 55.592C504.792 55.7413 505.048 55.8587 505.357 55.944C505.677 56.0293 506.029 56.104 506.413 56.168C506.797 56.2213 507.181 56.296 507.565 56.392C507.949 56.4773 508.296 56.6 508.605 56.76C508.925 56.92 509.181 57.144 509.373 57.432C509.576 57.72 509.677 58.104 509.677 58.584C509.677 59.096 509.528 59.5387 509.229 59.912C508.93 60.2853 508.509 60.5787 507.965 60.792C507.421 60.9947 506.77 61.096 506.013 61.096Z" fill="#0050B9"/>
<rect x="325" y="0.5" width="240.5" height="83" rx="7.5" stroke="#89B2FF"/>
</svg>
