<?xml version="1.0" encoding="UTF-8"?>
<svg width="216px" height="24px" viewBox="0 0 216 24" version="1.1" xmlns="http://www.w3.org/2000/svg" xmlns:xlink="http://www.w3.org/1999/xlink">
    <!-- Generator: Sketch 60.1 (88133) - https://sketch.com -->
    <title>pomvom-ios-logo</title>
    <desc>Created with Sketch.</desc>
    <defs>
        <linearGradient x1="45.8293394%" y1="99.6299025%" x2="54.736362%" y2="0.570499181%" id="linearGradient-1">
            <stop stop-color="#2F00A5" offset="15%"></stop>
            <stop stop-color="#750AB3" offset="100%"></stop>
        </linearGradient>
        <linearGradient x1="47.5662133%" y1="71.9248435%" x2="54.6438797%" y2="29.2821846%" id="linearGradient-2">
            <stop stop-color="#2F00A5" offset="15%"></stop>
            <stop stop-color="#750AB3" offset="100%"></stop>
        </linearGradient>
        <linearGradient x1="48.3360562%" y1="77.436456%" x2="56.1014344%" y2="25.7271825%" id="linearGradient-3">
            <stop stop-color="#2F00A5" offset="15%"></stop>
            <stop stop-color="#750AB3" offset="100%"></stop>
        </linearGradient>
        <linearGradient x1="50.0084894%" y1="100%" x2="50.0084894%" y2="0%" id="linearGradient-4">
            <stop stop-color="#2F00A5" offset="20%"></stop>
            <stop stop-color="#750AB3" offset="100%"></stop>
        </linearGradient>
        <linearGradient x1="50%" y1="100%" x2="50%" y2="0%" id="linearGradient-5">
            <stop stop-color="#2F00A5" offset="20%"></stop>
            <stop stop-color="#750AB3" offset="100%"></stop>
        </linearGradient>
        <linearGradient x1="50%" y1="100%" x2="50%" y2="-0.0161681487%" id="linearGradient-6">
            <stop stop-color="#2F00A5" offset="20%"></stop>
            <stop stop-color="#750AB3" offset="100%"></stop>
        </linearGradient>
        <linearGradient x1="50%" y1="100%" x2="50%" y2="-1.5625768e-14%" id="linearGradient-7">
            <stop stop-color="#2F00A5" offset="20%"></stop>
            <stop stop-color="#750AB3" offset="100%"></stop>
        </linearGradient>
    </defs>
    <g id="ios-final" stroke="none" stroke-width="1" fill="none" fill-rule="evenodd">
        <g id="long-artboad" transform="translate(-152.000000, -362.000000)">
            <g id="Group-80" transform="translate(152.000000, 362.000000)">
                <g id="pomvom-ios-logo">
                    <g id="pomvom-gradient">
                        <path d="M10.9177778,14.942963 C10.1783311,16.0179358 9.35950303,17.0360854 8.46814815,17.9888889 C9.09925926,19.6555556 9.97555556,20.6792593 10.9407407,20.6555556 C11.8859259,20.6325926 12.7392593,19.6111111 13.3555556,17.9755556 C12.4689233,17.0265089 11.6540844,16.0128503 10.9177778,14.942963 L10.9177778,14.942963 Z" id="Path" fill="url(#linearGradient-1)"></path>
                        <path d="M10.9177778,1.31333333 L12.1266667,0.00740740741 L11.7088889,1.94740741 L11.8881481,1.82888889 C12.2392593,1.59703704 12.8696296,1.57259259 13.4896296,1.76148148 C14.4614815,2.05777778 15.0585185,2.72444444 15.0585185,3.59851852 C15.0585185,4.50962963 14.2955556,5.25037037 13.3511111,5.25037037 C12.7881481,5.25037037 12.042963,4.85037037 11.5296296,4.27777778 C11.3591292,4.12224172 11.1460851,4.02113602 10.9177778,3.98740741 C10.6894705,4.02113602 10.4764263,4.12224172 10.3059259,4.27777778 C9.79185185,4.85037037 9.04666667,5.25037037 8.4837037,5.25037037 C7.54,5.25037037 6.78,4.50962963 6.78,3.59851852 C6.78,2.72740741 7.37703704,2.05777778 8.34888889,1.76148148 C8.96888889,1.57259259 9.59925926,1.59703704 9.95037037,1.82888889 L10.1296296,1.94740741 L9.70888889,0.00740740741 L10.9177778,1.31333333 Z" id="Path" fill="url(#linearGradient-2)"></path>
                        <path d="M18.5392593,9.77777778 C17.5890746,8.34207312 16.4896186,7.0109567 15.2592593,5.80666667 C14.7238558,6.25208737 14.0490513,6.49537351 13.3525926,6.49407407 C12.5592593,6.49407407 11.6414815,6.0837037 10.9192593,5.42444444 C10.197037,6.0837037 9.27925926,6.49407407 8.48518519,6.49407407 C7.78881177,6.49543326 7.11414187,6.25183888 6.57925926,5.80592593 C5.34800245,7.01066248 4.24733787,8.34198743 3.29555556,9.77777778 C0.125925926,14.5185185 -0.912592593,19.2814815 0.977037037,20.4133333 C2.86666667,21.5451852 6.96740741,18.6192593 10.137037,13.8785185 C10.4140741,13.4651852 10.674321,13.0520988 10.9177778,12.6392593 C11.1617284,13.0511111 11.4219753,13.4641975 11.6985185,13.8785185 C14.8681481,18.6192593 18.9688889,21.5451852 20.8585185,20.4133333 C22.7481481,19.2814815 21.7096296,14.5185185 18.5392593,9.77777778 Z" id="Path" fill="url(#linearGradient-3)"></path>
                        <path d="M30.8325926,14.142963 L30.8325926,20.7014815 L27.8266667,20.7014815 L27.8266667,1.57111111 L33.7296296,1.57111111 C37.8837037,1.57111111 40.9148148,2.39111111 40.9148148,7.5562963 C40.9148148,12.7214815 37.337037,14.142963 34.7407407,14.142963 L30.8325926,14.142963 Z M30.8325926,4.11259259 L30.8325926,11.4918519 L34.2488889,11.4918519 C36.8725926,11.4918519 37.9111111,10.2325926 37.9111111,7.64 C37.9111111,5.09851852 36.9266667,4.11407407 33.7296296,4.11407407 L30.8325926,4.11259259 Z" id="Shape" fill="url(#linearGradient-4)" fill-rule="nonzero"></path>
                        <path d="M43.1037037,13.9785185 C43.1037037,10.0977778 45.562963,6.95481481 49.8259259,6.95481481 C54.0888889,6.95481481 56.5762963,10.0977778 56.5762963,13.9785185 C56.5762963,17.8303704 54.0896296,20.9748148 49.8259259,20.9748148 C45.5622222,20.9748148 43.1037037,17.8318519 43.1037037,13.9785185 Z M45.9459259,13.9785185 C45.9459259,16.8207407 47.3392593,18.5711111 49.8259259,18.5711111 C52.3444444,18.5711111 53.7340741,16.8222222 53.7340741,13.9785185 C53.7340741,11.1088889 52.3407407,9.36 49.8259259,9.36 C47.3392593,9.36 45.9459259,11.1111111 45.9459259,13.9785185 Z" id="Shape" fill="url(#linearGradient-5)" fill-rule="nonzero"></path>
                        <path d="M78.0837037,20.7014815 L78.0837037,13.0222222 C78.0837037,10.5081481 77.237037,9.36 75.1325926,9.36 C72.3177778,9.36 71.88,11.2459259 71.88,12.6933333 L71.88,20.7007407 L69.0925926,20.7007407 L69.0925926,13.322963 C69.0925926,10.1525926 67.9725926,9.36 66.1140741,9.36 C64.72,9.36 63.5725926,9.85185185 62.9162963,10.8903704 L62.9162963,20.7014815 L60.1288889,20.7014815 L60.1288889,7.22814815 L62.3422222,7.22814815 L62.5881481,8.51259259 C63.8725926,7.39259259 64.9933333,6.95703704 66.4148148,6.95703704 C67.9992593,6.95703704 69.6940741,7.47555556 70.8414815,9.44444444 C71.5822222,8.05037037 73.1377778,6.95703704 75.597037,6.95703704 C79.0955556,6.95703704 80.8444444,9.08888889 80.8444444,12.997037 L80.8444444,20.7007407 L78.0837037,20.7014815 Z" id="Path" fill="url(#linearGradient-6)" fill-rule="nonzero"></path>
                        <polygon id="Path" fill="url(#linearGradient-7)" fill-rule="nonzero" points="91.2014815 20.7014815 88.4140741 20.7014815 83.2488889 7.22814815 86.2 7.22814815 89.8074074 17.477037 93.3874074 7.22814815 96.3392593 7.22814815"></polygon>
                        <path d="M98.1977778,13.9785185 C98.1977778,10.0977778 100.657037,6.95481481 104.920741,6.95481481 C109.184444,6.95481481 111.67037,10.0977778 111.67037,13.9785185 C111.67037,17.8303704 109.183704,20.9748148 104.920741,20.9748148 C100.657778,20.9748148 98.1977778,17.8318519 98.1977778,13.9785185 Z M101.04,13.9785185 C101.04,16.8207407 102.433333,18.5711111 104.920741,18.5711111 C107.434815,18.5711111 108.828148,16.8222222 108.828148,13.9785185 C108.828148,11.1088889 107.434815,9.36 104.920741,9.36 C102.433333,9.36 101.037037,11.1111111 101.037037,13.9785185 L101.04,13.9785185 Z" id="Shape" fill="url(#linearGradient-5)" fill-rule="nonzero"></path>
                        <path d="M133.177778,20.7014815 L133.177778,13.0222222 C133.177778,10.5081481 132.331111,9.36 130.226667,9.36 C127.411852,9.36 126.974074,11.2459259 126.974074,12.6933333 L126.974074,20.7007407 L124.186667,20.7007407 L124.186667,13.322963 C124.186667,10.1525926 123.066667,9.36 121.208148,9.36 C119.814074,9.36 118.666667,9.85185185 118.01037,10.8903704 L118.01037,20.7014815 L115.222963,20.7014815 L115.222963,7.22814815 L117.436296,7.22814815 L117.682963,8.51259259 C118.967407,7.39259259 120.087407,6.95703704 121.508889,6.95703704 C123.094074,6.95703704 124.788148,7.47555556 125.936296,9.44444444 C126.677037,8.05037037 128.232593,6.95703704 130.691111,6.95703704 C134.18963,6.95703704 135.938519,9.08888889 135.938519,12.997037 L135.938519,20.7007407 L133.177778,20.7014815 Z" id="Path" fill="url(#linearGradient-6)" fill-rule="nonzero"></path>
                    </g>
                    <text id="iOS-App" font-family="Muli-Regular, Muli" font-size="18" font-weight="normal" fill="#404040">
                        <tspan x="148" y="20">iOS App</tspan>
                    </text>
                </g>
            </g>
        </g>
    </g>
</svg>